%TF.GenerationSoftware,KiCad,Pcbnew,7.0.6*%
%TF.CreationDate,2023-07-18T12:26:49+01:00*%
%TF.ProjectId,Minidox,4d696e69-646f-4782-9e6b-696361645f70,rev?*%
%TF.SameCoordinates,Original*%
%TF.FileFunction,Copper,L1,Top*%
%TF.FilePolarity,Positive*%
%FSLAX46Y46*%
G04 Gerber Fmt 4.6, Leading zero omitted, Abs format (unit mm)*
G04 Created by KiCad (PCBNEW 7.0.6) date 2023-07-18 12:26:49*
%MOMM*%
%LPD*%
G01*
G04 APERTURE LIST*
G04 Aperture macros list*
%AMHorizOval*
0 Thick line with rounded ends*
0 $1 width*
0 $2 $3 position (X,Y) of the first rounded end (center of the circle)*
0 $4 $5 position (X,Y) of the second rounded end (center of the circle)*
0 Add line between two ends*
20,1,$1,$2,$3,$4,$5,0*
0 Add two circle primitives to create the rounded ends*
1,1,$1,$2,$3*
1,1,$1,$4,$5*%
G04 Aperture macros list end*
%TA.AperFunction,ComponentPad*%
%ADD10O,1.000000X1.600000*%
%TD*%
%TA.AperFunction,ComponentPad*%
%ADD11O,1.000000X2.100000*%
%TD*%
%TA.AperFunction,ComponentPad*%
%ADD12HorizOval,2.250000X0.655001X0.730000X-0.655001X-0.730000X0*%
%TD*%
%TA.AperFunction,ComponentPad*%
%ADD13C,2.250000*%
%TD*%
%TA.AperFunction,ComponentPad*%
%ADD14HorizOval,2.250000X0.020000X0.290000X-0.020000X-0.290000X0*%
%TD*%
%TA.AperFunction,ComponentPad*%
%ADD15R,2.000000X2.000000*%
%TD*%
%TA.AperFunction,ComponentPad*%
%ADD16C,2.000000*%
%TD*%
%TA.AperFunction,ComponentPad*%
%ADD17C,3.200000*%
%TD*%
%TA.AperFunction,ComponentPad*%
%ADD18O,4.680000X2.690000*%
%TD*%
%TA.AperFunction,ComponentPad*%
%ADD19O,1.600000X2.000000*%
%TD*%
%TA.AperFunction,ViaPad*%
%ADD20C,0.800000*%
%TD*%
%TA.AperFunction,Conductor*%
%ADD21C,0.381000*%
%TD*%
%TA.AperFunction,Conductor*%
%ADD22C,0.254000*%
%TD*%
%TA.AperFunction,Conductor*%
%ADD23C,0.200000*%
%TD*%
G04 APERTURE END LIST*
D10*
%TO.P,J2,S1,SHIELD*%
%TO.N,Net-(J2-SHIELD)*%
X120298750Y-48956250D03*
D11*
X120298750Y-53136250D03*
X128938750Y-53136250D03*
D10*
X128938750Y-48956250D03*
%TD*%
D12*
%TO.P,MX7,1,COL*%
%TO.N,COL2*%
X111145001Y-114205000D03*
D13*
X111800000Y-113475000D03*
D14*
%TO.P,MX7,2,ROW*%
%TO.N,Net-(D7-A)*%
X116820000Y-112685000D03*
D13*
X116840000Y-112395000D03*
%TD*%
D15*
%TO.P,SW3,A,A*%
%TO.N,En_A*%
X73700000Y-78687500D03*
D16*
%TO.P,SW3,B,B*%
%TO.N,En_B*%
X78700000Y-78687500D03*
%TO.P,SW3,C,C*%
%TO.N,GND*%
X76200000Y-78687500D03*
D17*
%TO.P,SW3,MP*%
%TO.N,N/C*%
X70600000Y-71187500D03*
X81800000Y-71187500D03*
D16*
%TO.P,SW3,S1,S1*%
%TO.N,En_S*%
X78700000Y-64187500D03*
%TO.P,SW3,S2,S2*%
%TO.N,GND*%
X73700000Y-64187500D03*
%TD*%
D12*
%TO.P,MX11,1,COL*%
%TO.N,COL2*%
X111145001Y-133255000D03*
D13*
X111800000Y-132525000D03*
D14*
%TO.P,MX11,2,ROW*%
%TO.N,Net-(D11-A)*%
X116820000Y-131735000D03*
D13*
X116840000Y-131445000D03*
%TD*%
D12*
%TO.P,MX3,1,COL*%
%TO.N,COL2*%
X111145001Y-95155000D03*
D13*
X111800000Y-94425000D03*
D14*
%TO.P,MX3,2,ROW*%
%TO.N,Net-(D3-A)*%
X116820000Y-93635000D03*
D13*
X116840000Y-93345000D03*
%TD*%
D12*
%TO.P,MX12,1,COL*%
%TO.N,COL3*%
X130195001Y-133255000D03*
D13*
X130850000Y-132525000D03*
D14*
%TO.P,MX12,2,ROW*%
%TO.N,Net-(D12-A)*%
X135870000Y-131735000D03*
D13*
X135890000Y-131445000D03*
%TD*%
D12*
%TO.P,MX13,1,COL*%
%TO.N,COL0*%
X73045001Y-152305000D03*
D13*
X73700000Y-151575000D03*
D14*
%TO.P,MX13,2,ROW*%
%TO.N,Net-(D13-A)*%
X78720000Y-150785000D03*
D13*
X78740000Y-150495000D03*
%TD*%
D12*
%TO.P,MX1,1,COL*%
%TO.N,COL0*%
X73045001Y-95155000D03*
D13*
X73700000Y-94425000D03*
D14*
%TO.P,MX1,2,ROW*%
%TO.N,Net-(D1-A)*%
X78720000Y-93635000D03*
D13*
X78740000Y-93345000D03*
%TD*%
D18*
%TO.P,Brd1,*%
%TO.N,*%
X88418750Y-59150000D03*
X88418750Y-83250000D03*
X110518750Y-59150000D03*
X110618750Y-83250000D03*
D19*
%TO.P,Brd1,1,GND*%
%TO.N,GND*%
X95598750Y-59250000D03*
%TO.P,Brd1,2,VCC*%
%TO.N,+5V*%
X98138750Y-59250000D03*
%TO.P,Brd1,3,SCL*%
%TO.N,SCL*%
X100678750Y-59250000D03*
%TO.P,Brd1,4,SDA*%
%TO.N,SDA*%
X103218750Y-59250000D03*
%TD*%
D12*
%TO.P,MX4,1,COL*%
%TO.N,COL3*%
X130195001Y-95155000D03*
D13*
X130850000Y-94425000D03*
D14*
%TO.P,MX4,2,ROW*%
%TO.N,Net-(D4-A)*%
X135870000Y-93635000D03*
D13*
X135890000Y-93345000D03*
%TD*%
D12*
%TO.P,MX2,1,COL*%
%TO.N,COL1*%
X92095001Y-95155000D03*
D13*
X92750000Y-94425000D03*
D14*
%TO.P,MX2,2,ROW*%
%TO.N,Net-(D2-A)*%
X97770000Y-93635000D03*
D13*
X97790000Y-93345000D03*
%TD*%
D12*
%TO.P,MX10,1,COL*%
%TO.N,COL1*%
X92095001Y-133255000D03*
D13*
X92750000Y-132525000D03*
D14*
%TO.P,MX10,2,ROW*%
%TO.N,Net-(D10-A)*%
X97770000Y-131735000D03*
D13*
X97790000Y-131445000D03*
%TD*%
D12*
%TO.P,MX14,1,COL*%
%TO.N,COL1*%
X92095001Y-152305000D03*
D13*
X92750000Y-151575000D03*
D14*
%TO.P,MX14,2,ROW*%
%TO.N,Net-(D14-A)*%
X97770000Y-150785000D03*
D13*
X97790000Y-150495000D03*
%TD*%
D12*
%TO.P,MX5,1,COL*%
%TO.N,COL0*%
X73045001Y-114205000D03*
D13*
X73700000Y-113475000D03*
D14*
%TO.P,MX5,2,ROW*%
%TO.N,Net-(D5-A)*%
X78720000Y-112685000D03*
D13*
X78740000Y-112395000D03*
%TD*%
D12*
%TO.P,MX16,1,COL*%
%TO.N,COL3*%
X130195001Y-152305000D03*
D13*
X130850000Y-151575000D03*
D14*
%TO.P,MX16,2,ROW*%
%TO.N,Net-(D16-A)*%
X135870000Y-150785000D03*
D13*
X135890000Y-150495000D03*
%TD*%
D12*
%TO.P,MX6,1,COL*%
%TO.N,COL1*%
X92095001Y-114205000D03*
D13*
X92750000Y-113475000D03*
D14*
%TO.P,MX6,2,ROW*%
%TO.N,Net-(D6-A)*%
X97770000Y-112685000D03*
D13*
X97790000Y-112395000D03*
%TD*%
D12*
%TO.P,MX9,1,COL*%
%TO.N,COL0*%
X73045001Y-133255000D03*
D13*
X73700000Y-132525000D03*
D14*
%TO.P,MX9,2,ROW*%
%TO.N,Net-(D9-A)*%
X78720000Y-131735000D03*
D13*
X78740000Y-131445000D03*
%TD*%
D12*
%TO.P,MX15,1,COL*%
%TO.N,COL2*%
X111145001Y-152305000D03*
D13*
X111800000Y-151575000D03*
D14*
%TO.P,MX15,2,ROW*%
%TO.N,Net-(D15-A)*%
X116820000Y-150785000D03*
D13*
X116840000Y-150495000D03*
%TD*%
D12*
%TO.P,MX8,1,COL*%
%TO.N,COL3*%
X130195001Y-114205000D03*
D13*
X130850000Y-113475000D03*
D14*
%TO.P,MX8,2,ROW*%
%TO.N,Net-(D8-A)*%
X135870000Y-112685000D03*
D13*
X135890000Y-112395000D03*
%TD*%
D20*
%TO.N,+5V*%
X134937500Y-69056250D03*
X133350000Y-65881250D03*
%TO.N,ROW2*%
X71437500Y-139700000D03*
X65881250Y-139700000D03*
%TO.N,ROW1*%
X71437500Y-120650000D03*
X65087500Y-120650000D03*
%TO.N,ROW0*%
X71437500Y-101600000D03*
X64293750Y-101600000D03*
%TO.N,D+*%
X126089411Y-51476911D03*
X124618750Y-51593750D03*
%TO.N,GND*%
X121443750Y-64293750D03*
X129381250Y-63500000D03*
X120650000Y-62706250D03*
X120650000Y-59531250D03*
%TO.N,+5V*%
X116681250Y-80962500D03*
X130175000Y-83343750D03*
X114300000Y-69056250D03*
X133350000Y-65881250D03*
X139700000Y-59531250D03*
X118268750Y-67468750D03*
X114300000Y-63500000D03*
X119856250Y-65881250D03*
X114300000Y-57150000D03*
%TO.N,SDA*%
X107156250Y-59531250D03*
X113506250Y-72231250D03*
%TO.N,VCC*%
X121443750Y-61118750D03*
X122237500Y-56356250D03*
%TO.N,En_A*%
X113506250Y-76200000D03*
X73818750Y-81756250D03*
%TO.N,En_B*%
X84931250Y-78581250D03*
X113506250Y-74818253D03*
%TO.N,En_S*%
X84931250Y-64293750D03*
X113506250Y-73818750D03*
%TD*%
D21*
%TO.N,GND*%
X129381250Y-63500000D02*
X128587500Y-64293750D01*
X128587500Y-64293750D02*
X121443750Y-64293750D01*
%TO.N,+5V*%
X134937500Y-67468750D02*
X134937500Y-69056250D01*
X133350000Y-67468750D02*
X134937500Y-67468750D01*
X133350000Y-70643750D02*
X134937500Y-69056250D01*
X119856250Y-65881250D02*
X118268750Y-67468750D01*
X133350000Y-83343750D02*
X133350000Y-70643750D01*
X133350000Y-65881250D02*
X133350000Y-67468750D01*
D22*
%TO.N,ROW2*%
X65881250Y-139700000D02*
X71437500Y-139700000D01*
%TO.N,ROW1*%
X65087500Y-120650000D02*
X71437500Y-120650000D01*
%TO.N,ROW0*%
X64293750Y-101600000D02*
X71437500Y-101600000D01*
%TO.N,COL3*%
X129540000Y-133985000D02*
X129540000Y-153035000D01*
X129540000Y-114935000D02*
X129540000Y-133985000D01*
X129540000Y-95885000D02*
X129540000Y-114935000D01*
%TO.N,COL2*%
X110490000Y-133985000D02*
X110490000Y-153035000D01*
X110490000Y-114935000D02*
X110490000Y-133985000D01*
X110490000Y-95885000D02*
X110490000Y-114935000D01*
%TO.N,COL1*%
X91440000Y-133985000D02*
X91440000Y-153035000D01*
X91440000Y-114935000D02*
X91440000Y-133985000D01*
X91440000Y-95885000D02*
X91440000Y-114935000D01*
%TO.N,COL0*%
X72390000Y-133985000D02*
X72390000Y-153035000D01*
X72390000Y-114935000D02*
X72390000Y-133985000D01*
X72390000Y-95885000D02*
X72390000Y-114935000D01*
D23*
%TO.N,D+*%
X126089411Y-51476911D02*
X125972572Y-51593750D01*
X125972572Y-51593750D02*
X124618750Y-51593750D01*
D21*
%TO.N,GND*%
X120650000Y-59531250D02*
X120650000Y-62706250D01*
%TO.N,+5V*%
X116681250Y-80962500D02*
X116681250Y-83343750D01*
X139700000Y-59531250D02*
X133350000Y-65881250D01*
X116681250Y-80962500D02*
X114300000Y-80962500D01*
X114300000Y-80962500D02*
X114300000Y-69056250D01*
X116681250Y-83343750D02*
X130175000Y-83343750D01*
X133350000Y-83343750D02*
X130175000Y-83343750D01*
X114300000Y-63500000D02*
X114300000Y-57150000D01*
D22*
%TO.N,SDA*%
X107156250Y-59531250D02*
X112712500Y-65087500D01*
X112712500Y-65087500D02*
X112712500Y-71437500D01*
X112712500Y-71437500D02*
X113506250Y-72231250D01*
%TO.N,VCC*%
X122237500Y-58737500D02*
X122237500Y-56356250D01*
X121443750Y-59531250D02*
X122237500Y-58737500D01*
X121443750Y-61118750D02*
X121443750Y-59531250D01*
%TO.N,En_A*%
X86518750Y-80168750D02*
X109537500Y-80168750D01*
X84931250Y-81756250D02*
X86518750Y-80168750D01*
X73818750Y-81756250D02*
X84931250Y-81756250D01*
X109537500Y-80168750D02*
X113506250Y-76200000D01*
%TO.N,En_B*%
X113506250Y-74612500D02*
X113506250Y-74818253D01*
X109537500Y-78581250D02*
X113506250Y-74612500D01*
X84931250Y-78581250D02*
X109537500Y-78581250D01*
%TO.N,En_S*%
X111125000Y-65881250D02*
X111125000Y-73025000D01*
X109537500Y-64293750D02*
X111125000Y-65881250D01*
X111125000Y-73025000D02*
X111918750Y-73818750D01*
X111918750Y-73818750D02*
X113506250Y-73818750D01*
X84931250Y-64293750D02*
X109537500Y-64293750D01*
%TD*%
M02*
