M48
; DRILL file {KiCad 7.0.6} date Tue Jul 18 12:29:45 2023
; FORMAT={-:-/ absolute / inch / decimal}
; #@! TF.CreationDate,2023-07-18T12:29:45+01:00
; #@! TF.GenerationSoftware,Kicad,Pcbnew,7.0.6
; #@! TF.FileFunction,NonPlated,1,2,NPTH
FMAT,2
INCH
; #@! TA.AperFunction,NonPlated,NPTH,ComponentDrill
T1C0.0256
; #@! TA.AperFunction,NonPlated,NPTH,ComponentDrill
T2C0.0689
; #@! TA.AperFunction,NonPlated,NPTH,ComponentDrill
T3C0.1570
%
G90
G05
T1
X4.7925Y-2.0711
X5.02Y-2.0711
T2
X2.8Y-3.875
X2.8Y-4.625
X2.8Y-5.375
X2.8Y-6.125
X3.2Y-3.875
X3.2Y-4.625
X3.2Y-5.375
X3.2Y-6.125
X3.55Y-3.875
X3.55Y-4.625
X3.55Y-5.375
X3.55Y-6.125
X3.95Y-3.875
X3.95Y-4.625
X3.95Y-5.375
X3.95Y-6.125
X4.3Y-3.875
X4.3Y-4.625
X4.3Y-5.375
X4.3Y-6.125
X4.7Y-3.875
X4.7Y-4.625
X4.7Y-5.375
X4.7Y-6.125
X5.05Y-3.875
X5.05Y-4.625
X5.05Y-5.375
X5.05Y-6.125
X5.45Y-3.875
X5.45Y-4.625
X5.45Y-5.375
X5.45Y-6.125
T3
X3.0Y-3.875
X3.0Y-4.625
X3.0Y-5.375
X3.0Y-6.125
X3.75Y-3.875
X3.75Y-4.625
X3.75Y-5.375
X3.75Y-6.125
X4.5Y-3.875
X4.5Y-4.625
X4.5Y-5.375
X4.5Y-6.125
X5.25Y-3.875
X5.25Y-4.625
X5.25Y-5.375
X5.25Y-6.125
T0
M30
