M48
; DRILL file {KiCad 7.0.6} date Tue Jul 18 12:29:45 2023
; FORMAT={-:-/ absolute / inch / decimal}
; #@! TF.CreationDate,2023-07-18T12:29:45+01:00
; #@! TF.GenerationSoftware,Kicad,Pcbnew,7.0.6
; #@! TF.FileFunction,Plated,1,2,PTH
FMAT,2
INCH
; #@! TA.AperFunction,Plated,PTH,ViaDrill
T1C0.0157
; #@! TA.AperFunction,Plated,PTH,ComponentDrill
T2C0.0236
; #@! TA.AperFunction,Plated,PTH,ComponentDrill
T3C0.0394
; #@! TA.AperFunction,Plated,PTH,ComponentDrill
T4C0.0579
; #@! TA.AperFunction,Plated,PTH,ComponentDrill
T5C0.0984
; #@! TA.AperFunction,Plated,PTH,ComponentDrill
T6C0.1024
%
G90
G05
T1
X2.5312Y-4.0
X2.5625Y-4.75
X2.5938Y-5.5
X2.8125Y-4.0
X2.8125Y-4.75
X2.8125Y-5.5
X2.9062Y-3.2188
X3.3438Y-2.5312
X3.3438Y-3.0938
X4.2188Y-2.3438
X4.4688Y-2.8438
X4.4688Y-2.9062
X4.4688Y-2.9456
X4.4688Y-3.0
X4.5Y-2.25
X4.5Y-2.5
X4.5Y-2.7188
X4.5938Y-3.1875
X4.6562Y-2.6562
X4.7188Y-2.5938
X4.75Y-2.3438
X4.75Y-2.4688
X4.7812Y-2.4062
X4.7812Y-2.5312
X4.8125Y-2.2188
X4.9062Y-2.0312
X4.9642Y-2.0267
X5.0938Y-2.5
X5.125Y-3.2812
X5.25Y-2.5938
X5.25Y-2.5938
X5.3125Y-2.7188
X5.5Y-2.3438
T3
X2.9016Y-2.5271
X2.9016Y-3.0979
X3.0Y-3.0979
X3.0984Y-2.5271
X3.0984Y-3.0979
X3.7637Y-2.3327
X3.8637Y-2.3327
X3.9637Y-2.3327
X4.0637Y-2.3327
T4
X2.85Y-3.775
X2.85Y-4.525
X2.85Y-5.275
X2.85Y-6.025
X2.9016Y-3.7175
X2.9016Y-4.4675
X2.9016Y-5.2175
X2.9016Y-5.9675
X3.0984Y-3.6978
X3.0984Y-4.4478
X3.0984Y-5.1978
X3.0984Y-5.9478
X3.1Y-3.675
X3.1Y-4.425
X3.1Y-5.175
X3.1Y-5.925
X3.6Y-3.775
X3.6Y-4.525
X3.6Y-5.275
X3.6Y-6.025
X3.6516Y-3.7175
X3.6516Y-4.4675
X3.6516Y-5.2175
X3.6516Y-5.9675
X3.8484Y-3.6978
X3.8484Y-4.4478
X3.8484Y-5.1978
X3.8484Y-5.9478
X3.85Y-3.675
X3.85Y-4.425
X3.85Y-5.175
X3.85Y-5.925
X4.35Y-3.775
X4.35Y-4.525
X4.35Y-5.275
X4.35Y-6.025
X4.4016Y-3.7175
X4.4016Y-4.4675
X4.4016Y-5.2175
X4.4016Y-5.9675
X4.5984Y-3.6978
X4.5984Y-4.4478
X4.5984Y-5.1978
X4.5984Y-5.9478
X4.6Y-3.675
X4.6Y-4.425
X4.6Y-5.175
X4.6Y-5.925
X5.1Y-3.775
X5.1Y-4.525
X5.1Y-5.275
X5.1Y-6.025
X5.1516Y-3.7175
X5.1516Y-4.4675
X5.1516Y-5.2175
X5.1516Y-5.9675
X5.3484Y-3.6978
X5.3484Y-4.4478
X5.3484Y-5.1978
X5.3484Y-5.9478
X5.35Y-3.675
X5.35Y-4.425
X5.35Y-5.175
X5.35Y-5.925
T6
X2.7795Y-2.8027
X3.2205Y-2.8027
T2
G00X4.7362Y-1.9156
M15
G01X4.7362Y-1.9392
M16
G05
G00X4.7362Y-2.0703
M15
G01X4.7362Y-2.1136
M16
G05
G00X5.0763Y-1.9156
M15
G01X5.0763Y-1.9392
M16
G05
G00X5.0763Y-2.0703
M15
G01X5.0763Y-2.1136
M16
G05
T5
G00X3.5204Y-2.3287
M15
G01X3.4417Y-2.3287
M16
G05
G00X3.5204Y-3.2776
M15
G01X3.4417Y-3.2776
M16
G05
G00X4.3905Y-2.3287
M15
G01X4.3118Y-2.3287
M16
G05
G00X4.3944Y-3.2776
M15
G01X4.3157Y-3.2776
M16
G05
T0
M30
