%TF.GenerationSoftware,KiCad,Pcbnew,7.0.6*%
%TF.CreationDate,2023-07-18T12:26:49+01:00*%
%TF.ProjectId,Minidox,4d696e69-646f-4782-9e6b-696361645f70,rev?*%
%TF.SameCoordinates,Original*%
%TF.FileFunction,Soldermask,Top*%
%TF.FilePolarity,Negative*%
%FSLAX46Y46*%
G04 Gerber Fmt 4.6, Leading zero omitted, Abs format (unit mm)*
G04 Created by KiCad (PCBNEW 7.0.6) date 2023-07-18 12:26:49*
%MOMM*%
%LPD*%
G01*
G04 APERTURE LIST*
%ADD10C,0.650000*%
%ADD11O,1.000000X1.600000*%
%ADD12O,1.000000X2.100000*%
%ADD13C,1.750000*%
%ADD14C,3.987800*%
%ADD15R,2.000000X2.000000*%
%ADD16C,2.000000*%
%ADD17C,3.200000*%
%ADD18O,4.680000X2.690000*%
%ADD19O,1.600000X2.000000*%
G04 APERTURE END LIST*
D10*
%TO.C,J2*%
X127508750Y-52606250D03*
X121728750Y-52606250D03*
D11*
X120298750Y-48956250D03*
D12*
X120298750Y-53136250D03*
X128938750Y-53136250D03*
D11*
X128938750Y-48956250D03*
%TD*%
D13*
%TO.C,MX7*%
X109220000Y-117475000D03*
D14*
X114300000Y-117475000D03*
D13*
X119380000Y-117475000D03*
%TD*%
D15*
%TO.C,SW3*%
X73700000Y-78687500D03*
D16*
X78700000Y-78687500D03*
X76200000Y-78687500D03*
D17*
X70600000Y-71187500D03*
X81800000Y-71187500D03*
D16*
X78700000Y-64187500D03*
X73700000Y-64187500D03*
%TD*%
D13*
%TO.C,MX11*%
X109220000Y-136525000D03*
D14*
X114300000Y-136525000D03*
D13*
X119380000Y-136525000D03*
%TD*%
%TO.C,MX3*%
X109220000Y-98425000D03*
D14*
X114300000Y-98425000D03*
D13*
X119380000Y-98425000D03*
%TD*%
%TO.C,MX12*%
X128270000Y-136525000D03*
D14*
X133350000Y-136525000D03*
D13*
X138430000Y-136525000D03*
%TD*%
%TO.C,MX13*%
X71120000Y-155575000D03*
D14*
X76200000Y-155575000D03*
D13*
X81280000Y-155575000D03*
%TD*%
%TO.C,MX1*%
X71120000Y-98425000D03*
D14*
X76200000Y-98425000D03*
D13*
X81280000Y-98425000D03*
%TD*%
D18*
%TO.C,Brd1*%
X88418750Y-59150000D03*
X88418750Y-83250000D03*
X110518750Y-59150000D03*
X110618750Y-83250000D03*
D19*
X95598750Y-59250000D03*
X98138750Y-59250000D03*
X100678750Y-59250000D03*
X103218750Y-59250000D03*
%TD*%
D13*
%TO.C,MX4*%
X128270000Y-98425000D03*
D14*
X133350000Y-98425000D03*
D13*
X138430000Y-98425000D03*
%TD*%
%TO.C,MX2*%
X90170000Y-98425000D03*
D14*
X95250000Y-98425000D03*
D13*
X100330000Y-98425000D03*
%TD*%
%TO.C,MX10*%
X90170000Y-136525000D03*
D14*
X95250000Y-136525000D03*
D13*
X100330000Y-136525000D03*
%TD*%
%TO.C,MX14*%
X90170000Y-155575000D03*
D14*
X95250000Y-155575000D03*
D13*
X100330000Y-155575000D03*
%TD*%
%TO.C,MX5*%
X71120000Y-117475000D03*
D14*
X76200000Y-117475000D03*
D13*
X81280000Y-117475000D03*
%TD*%
%TO.C,MX16*%
X128270000Y-155575000D03*
D14*
X133350000Y-155575000D03*
D13*
X138430000Y-155575000D03*
%TD*%
%TO.C,MX6*%
X90170000Y-117475000D03*
D14*
X95250000Y-117475000D03*
D13*
X100330000Y-117475000D03*
%TD*%
%TO.C,MX9*%
X71120000Y-136525000D03*
D14*
X76200000Y-136525000D03*
D13*
X81280000Y-136525000D03*
%TD*%
%TO.C,MX15*%
X109220000Y-155575000D03*
D14*
X114300000Y-155575000D03*
D13*
X119380000Y-155575000D03*
%TD*%
%TO.C,MX8*%
X128270000Y-117475000D03*
D14*
X133350000Y-117475000D03*
D13*
X138430000Y-117475000D03*
%TD*%
M02*
