%TF.GenerationSoftware,KiCad,Pcbnew,7.0.6*%
%TF.CreationDate,2023-07-18T12:26:49+01:00*%
%TF.ProjectId,Minidox,4d696e69-646f-4782-9e6b-696361645f70,rev?*%
%TF.SameCoordinates,Original*%
%TF.FileFunction,Legend,Bot*%
%TF.FilePolarity,Positive*%
%FSLAX46Y46*%
G04 Gerber Fmt 4.6, Leading zero omitted, Abs format (unit mm)*
G04 Created by KiCad (PCBNEW 7.0.6) date 2023-07-18 12:26:49*
%MOMM*%
%LPD*%
G01*
G04 APERTURE LIST*
G04 Aperture macros list*
%AMRoundRect*
0 Rectangle with rounded corners*
0 $1 Rounding radius*
0 $2 $3 $4 $5 $6 $7 $8 $9 X,Y pos of 4 corners*
0 Add a 4 corners polygon primitive as box body*
4,1,4,$2,$3,$4,$5,$6,$7,$8,$9,$2,$3,0*
0 Add four circle primitives for the rounded corners*
1,1,$1+$1,$2,$3*
1,1,$1+$1,$4,$5*
1,1,$1+$1,$6,$7*
1,1,$1+$1,$8,$9*
0 Add four rect primitives between the rounded corners*
20,1,$1+$1,$2,$3,$4,$5,0*
20,1,$1+$1,$4,$5,$6,$7,0*
20,1,$1+$1,$6,$7,$8,$9,0*
20,1,$1+$1,$8,$9,$2,$3,0*%
%AMHorizOval*
0 Thick line with rounded ends*
0 $1 width*
0 $2 $3 position (X,Y) of the first rounded end (center of the circle)*
0 $4 $5 position (X,Y) of the second rounded end (center of the circle)*
0 Add line between two ends*
20,1,$1,$2,$3,$4,$5,0*
0 Add two circle primitives to create the rounded ends*
1,1,$1,$2,$3*
1,1,$1,$4,$5*%
G04 Aperture macros list end*
%ADD10C,0.150000*%
%ADD11C,0.120000*%
%ADD12RoundRect,0.250000X-0.450000X0.350000X-0.450000X-0.350000X0.450000X-0.350000X0.450000X0.350000X0*%
%ADD13RoundRect,0.250000X-0.350000X-0.450000X0.350000X-0.450000X0.350000X0.450000X-0.350000X0.450000X0*%
%ADD14RoundRect,0.250000X0.350000X0.450000X-0.350000X0.450000X-0.350000X-0.450000X0.350000X-0.450000X0*%
%ADD15C,0.650000*%
%ADD16R,0.600000X1.450000*%
%ADD17R,0.300000X1.450000*%
%ADD18O,1.000000X1.600000*%
%ADD19O,1.000000X2.100000*%
%ADD20RoundRect,0.250001X0.462499X0.624999X-0.462499X0.624999X-0.462499X-0.624999X0.462499X-0.624999X0*%
%ADD21C,1.750000*%
%ADD22C,3.987800*%
%ADD23HorizOval,2.250000X0.655001X0.730000X-0.655001X-0.730000X0*%
%ADD24C,2.250000*%
%ADD25HorizOval,2.250000X0.020000X0.290000X-0.020000X-0.290000X0*%
%ADD26R,2.000000X2.000000*%
%ADD27C,2.000000*%
%ADD28C,3.200000*%
%ADD29O,4.680000X2.690000*%
%ADD30O,1.600000X2.000000*%
%ADD31RoundRect,0.225000X0.375000X-0.225000X0.375000X0.225000X-0.375000X0.225000X-0.375000X-0.225000X0*%
%ADD32RoundRect,0.250000X-0.337500X-0.475000X0.337500X-0.475000X0.337500X0.475000X-0.337500X0.475000X0*%
%ADD33RoundRect,0.250000X0.337500X0.475000X-0.337500X0.475000X-0.337500X-0.475000X0.337500X-0.475000X0*%
%ADD34R,0.550000X1.500000*%
%ADD35R,1.500000X0.550000*%
%ADD36RoundRect,0.250000X0.450000X-0.350000X0.450000X0.350000X-0.450000X0.350000X-0.450000X-0.350000X0*%
%ADD37RoundRect,0.250000X0.475000X-0.337500X0.475000X0.337500X-0.475000X0.337500X-0.475000X-0.337500X0*%
%ADD38RoundRect,0.250000X-0.475000X0.337500X-0.475000X-0.337500X0.475000X-0.337500X0.475000X0.337500X0*%
%ADD39R,1.800000X2.100000*%
%ADD40R,1.100000X1.800000*%
G04 APERTURE END LIST*
D10*
X115486069Y-54919642D02*
X115009878Y-54586309D01*
X115486069Y-54348214D02*
X114486069Y-54348214D01*
X114486069Y-54348214D02*
X114486069Y-54729166D01*
X114486069Y-54729166D02*
X114533688Y-54824404D01*
X114533688Y-54824404D02*
X114581307Y-54872023D01*
X114581307Y-54872023D02*
X114676545Y-54919642D01*
X114676545Y-54919642D02*
X114819402Y-54919642D01*
X114819402Y-54919642D02*
X114914640Y-54872023D01*
X114914640Y-54872023D02*
X114962259Y-54824404D01*
X114962259Y-54824404D02*
X115009878Y-54729166D01*
X115009878Y-54729166D02*
X115009878Y-54348214D01*
X115486069Y-55872023D02*
X115486069Y-55300595D01*
X115486069Y-55586309D02*
X114486069Y-55586309D01*
X114486069Y-55586309D02*
X114628926Y-55491071D01*
X114628926Y-55491071D02*
X114724164Y-55395833D01*
X114724164Y-55395833D02*
X114771783Y-55300595D01*
X114486069Y-56491071D02*
X114486069Y-56586309D01*
X114486069Y-56586309D02*
X114533688Y-56681547D01*
X114533688Y-56681547D02*
X114581307Y-56729166D01*
X114581307Y-56729166D02*
X114676545Y-56776785D01*
X114676545Y-56776785D02*
X114867021Y-56824404D01*
X114867021Y-56824404D02*
X115105116Y-56824404D01*
X115105116Y-56824404D02*
X115295592Y-56776785D01*
X115295592Y-56776785D02*
X115390830Y-56729166D01*
X115390830Y-56729166D02*
X115438450Y-56681547D01*
X115438450Y-56681547D02*
X115486069Y-56586309D01*
X115486069Y-56586309D02*
X115486069Y-56491071D01*
X115486069Y-56491071D02*
X115438450Y-56395833D01*
X115438450Y-56395833D02*
X115390830Y-56348214D01*
X115390830Y-56348214D02*
X115295592Y-56300595D01*
X115295592Y-56300595D02*
X115105116Y-56252976D01*
X115105116Y-56252976D02*
X114867021Y-56252976D01*
X114867021Y-56252976D02*
X114676545Y-56300595D01*
X114676545Y-56300595D02*
X114581307Y-56348214D01*
X114581307Y-56348214D02*
X114533688Y-56395833D01*
X114533688Y-56395833D02*
X114486069Y-56491071D01*
X120022916Y-60048569D02*
X120356249Y-59572378D01*
X120594344Y-60048569D02*
X120594344Y-59048569D01*
X120594344Y-59048569D02*
X120213392Y-59048569D01*
X120213392Y-59048569D02*
X120118154Y-59096188D01*
X120118154Y-59096188D02*
X120070535Y-59143807D01*
X120070535Y-59143807D02*
X120022916Y-59239045D01*
X120022916Y-59239045D02*
X120022916Y-59381902D01*
X120022916Y-59381902D02*
X120070535Y-59477140D01*
X120070535Y-59477140D02*
X120118154Y-59524759D01*
X120118154Y-59524759D02*
X120213392Y-59572378D01*
X120213392Y-59572378D02*
X120594344Y-59572378D01*
X119546725Y-60048569D02*
X119356249Y-60048569D01*
X119356249Y-60048569D02*
X119261011Y-60000950D01*
X119261011Y-60000950D02*
X119213392Y-59953330D01*
X119213392Y-59953330D02*
X119118154Y-59810473D01*
X119118154Y-59810473D02*
X119070535Y-59619997D01*
X119070535Y-59619997D02*
X119070535Y-59239045D01*
X119070535Y-59239045D02*
X119118154Y-59143807D01*
X119118154Y-59143807D02*
X119165773Y-59096188D01*
X119165773Y-59096188D02*
X119261011Y-59048569D01*
X119261011Y-59048569D02*
X119451487Y-59048569D01*
X119451487Y-59048569D02*
X119546725Y-59096188D01*
X119546725Y-59096188D02*
X119594344Y-59143807D01*
X119594344Y-59143807D02*
X119641963Y-59239045D01*
X119641963Y-59239045D02*
X119641963Y-59477140D01*
X119641963Y-59477140D02*
X119594344Y-59572378D01*
X119594344Y-59572378D02*
X119546725Y-59619997D01*
X119546725Y-59619997D02*
X119451487Y-59667616D01*
X119451487Y-59667616D02*
X119261011Y-59667616D01*
X119261011Y-59667616D02*
X119165773Y-59619997D01*
X119165773Y-59619997D02*
X119118154Y-59572378D01*
X119118154Y-59572378D02*
X119070535Y-59477140D01*
X128754166Y-56748569D02*
X129087499Y-56272378D01*
X129325594Y-56748569D02*
X129325594Y-55748569D01*
X129325594Y-55748569D02*
X128944642Y-55748569D01*
X128944642Y-55748569D02*
X128849404Y-55796188D01*
X128849404Y-55796188D02*
X128801785Y-55843807D01*
X128801785Y-55843807D02*
X128754166Y-55939045D01*
X128754166Y-55939045D02*
X128754166Y-56081902D01*
X128754166Y-56081902D02*
X128801785Y-56177140D01*
X128801785Y-56177140D02*
X128849404Y-56224759D01*
X128849404Y-56224759D02*
X128944642Y-56272378D01*
X128944642Y-56272378D02*
X129325594Y-56272378D01*
X128182737Y-56177140D02*
X128277975Y-56129521D01*
X128277975Y-56129521D02*
X128325594Y-56081902D01*
X128325594Y-56081902D02*
X128373213Y-55986664D01*
X128373213Y-55986664D02*
X128373213Y-55939045D01*
X128373213Y-55939045D02*
X128325594Y-55843807D01*
X128325594Y-55843807D02*
X128277975Y-55796188D01*
X128277975Y-55796188D02*
X128182737Y-55748569D01*
X128182737Y-55748569D02*
X127992261Y-55748569D01*
X127992261Y-55748569D02*
X127897023Y-55796188D01*
X127897023Y-55796188D02*
X127849404Y-55843807D01*
X127849404Y-55843807D02*
X127801785Y-55939045D01*
X127801785Y-55939045D02*
X127801785Y-55986664D01*
X127801785Y-55986664D02*
X127849404Y-56081902D01*
X127849404Y-56081902D02*
X127897023Y-56129521D01*
X127897023Y-56129521D02*
X127992261Y-56177140D01*
X127992261Y-56177140D02*
X128182737Y-56177140D01*
X128182737Y-56177140D02*
X128277975Y-56224759D01*
X128277975Y-56224759D02*
X128325594Y-56272378D01*
X128325594Y-56272378D02*
X128373213Y-56367616D01*
X128373213Y-56367616D02*
X128373213Y-56558092D01*
X128373213Y-56558092D02*
X128325594Y-56653330D01*
X128325594Y-56653330D02*
X128277975Y-56700950D01*
X128277975Y-56700950D02*
X128182737Y-56748569D01*
X128182737Y-56748569D02*
X127992261Y-56748569D01*
X127992261Y-56748569D02*
X127897023Y-56700950D01*
X127897023Y-56700950D02*
X127849404Y-56653330D01*
X127849404Y-56653330D02*
X127801785Y-56558092D01*
X127801785Y-56558092D02*
X127801785Y-56367616D01*
X127801785Y-56367616D02*
X127849404Y-56272378D01*
X127849404Y-56272378D02*
X127897023Y-56224759D01*
X127897023Y-56224759D02*
X127992261Y-56177140D01*
X124952083Y-55106069D02*
X124952083Y-55820354D01*
X124952083Y-55820354D02*
X124999702Y-55963211D01*
X124999702Y-55963211D02*
X125094940Y-56058450D01*
X125094940Y-56058450D02*
X125237797Y-56106069D01*
X125237797Y-56106069D02*
X125333035Y-56106069D01*
X124523511Y-55201307D02*
X124475892Y-55153688D01*
X124475892Y-55153688D02*
X124380654Y-55106069D01*
X124380654Y-55106069D02*
X124142559Y-55106069D01*
X124142559Y-55106069D02*
X124047321Y-55153688D01*
X124047321Y-55153688D02*
X123999702Y-55201307D01*
X123999702Y-55201307D02*
X123952083Y-55296545D01*
X123952083Y-55296545D02*
X123952083Y-55391783D01*
X123952083Y-55391783D02*
X123999702Y-55534640D01*
X123999702Y-55534640D02*
X124571130Y-56106069D01*
X124571130Y-56106069D02*
X123952083Y-56106069D01*
X117808333Y-59229759D02*
X118141666Y-59229759D01*
X118141666Y-59753569D02*
X118141666Y-58753569D01*
X118141666Y-58753569D02*
X117665476Y-58753569D01*
X116760714Y-59753569D02*
X117332142Y-59753569D01*
X117046428Y-59753569D02*
X117046428Y-58753569D01*
X117046428Y-58753569D02*
X117141666Y-58896426D01*
X117141666Y-58896426D02*
X117236904Y-58991664D01*
X117236904Y-58991664D02*
X117332142Y-59039283D01*
X143742319Y-116736905D02*
X142742319Y-116736905D01*
X142742319Y-116736905D02*
X142742319Y-116975000D01*
X142742319Y-116975000D02*
X142789938Y-117117857D01*
X142789938Y-117117857D02*
X142885176Y-117213095D01*
X142885176Y-117213095D02*
X142980414Y-117260714D01*
X142980414Y-117260714D02*
X143170890Y-117308333D01*
X143170890Y-117308333D02*
X143313747Y-117308333D01*
X143313747Y-117308333D02*
X143504223Y-117260714D01*
X143504223Y-117260714D02*
X143599461Y-117213095D01*
X143599461Y-117213095D02*
X143694700Y-117117857D01*
X143694700Y-117117857D02*
X143742319Y-116975000D01*
X143742319Y-116975000D02*
X143742319Y-116736905D01*
X143170890Y-117879762D02*
X143123271Y-117784524D01*
X143123271Y-117784524D02*
X143075652Y-117736905D01*
X143075652Y-117736905D02*
X142980414Y-117689286D01*
X142980414Y-117689286D02*
X142932795Y-117689286D01*
X142932795Y-117689286D02*
X142837557Y-117736905D01*
X142837557Y-117736905D02*
X142789938Y-117784524D01*
X142789938Y-117784524D02*
X142742319Y-117879762D01*
X142742319Y-117879762D02*
X142742319Y-118070238D01*
X142742319Y-118070238D02*
X142789938Y-118165476D01*
X142789938Y-118165476D02*
X142837557Y-118213095D01*
X142837557Y-118213095D02*
X142932795Y-118260714D01*
X142932795Y-118260714D02*
X142980414Y-118260714D01*
X142980414Y-118260714D02*
X143075652Y-118213095D01*
X143075652Y-118213095D02*
X143123271Y-118165476D01*
X143123271Y-118165476D02*
X143170890Y-118070238D01*
X143170890Y-118070238D02*
X143170890Y-117879762D01*
X143170890Y-117879762D02*
X143218509Y-117784524D01*
X143218509Y-117784524D02*
X143266128Y-117736905D01*
X143266128Y-117736905D02*
X143361366Y-117689286D01*
X143361366Y-117689286D02*
X143551842Y-117689286D01*
X143551842Y-117689286D02*
X143647080Y-117736905D01*
X143647080Y-117736905D02*
X143694700Y-117784524D01*
X143694700Y-117784524D02*
X143742319Y-117879762D01*
X143742319Y-117879762D02*
X143742319Y-118070238D01*
X143742319Y-118070238D02*
X143694700Y-118165476D01*
X143694700Y-118165476D02*
X143647080Y-118213095D01*
X143647080Y-118213095D02*
X143551842Y-118260714D01*
X143551842Y-118260714D02*
X143361366Y-118260714D01*
X143361366Y-118260714D02*
X143266128Y-118213095D01*
X143266128Y-118213095D02*
X143218509Y-118165476D01*
X143218509Y-118165476D02*
X143170890Y-118070238D01*
X124692319Y-135310714D02*
X123692319Y-135310714D01*
X123692319Y-135310714D02*
X123692319Y-135548809D01*
X123692319Y-135548809D02*
X123739938Y-135691666D01*
X123739938Y-135691666D02*
X123835176Y-135786904D01*
X123835176Y-135786904D02*
X123930414Y-135834523D01*
X123930414Y-135834523D02*
X124120890Y-135882142D01*
X124120890Y-135882142D02*
X124263747Y-135882142D01*
X124263747Y-135882142D02*
X124454223Y-135834523D01*
X124454223Y-135834523D02*
X124549461Y-135786904D01*
X124549461Y-135786904D02*
X124644700Y-135691666D01*
X124644700Y-135691666D02*
X124692319Y-135548809D01*
X124692319Y-135548809D02*
X124692319Y-135310714D01*
X124692319Y-136834523D02*
X124692319Y-136263095D01*
X124692319Y-136548809D02*
X123692319Y-136548809D01*
X123692319Y-136548809D02*
X123835176Y-136453571D01*
X123835176Y-136453571D02*
X123930414Y-136358333D01*
X123930414Y-136358333D02*
X123978033Y-136263095D01*
X124692319Y-137786904D02*
X124692319Y-137215476D01*
X124692319Y-137501190D02*
X123692319Y-137501190D01*
X123692319Y-137501190D02*
X123835176Y-137405952D01*
X123835176Y-137405952D02*
X123930414Y-137310714D01*
X123930414Y-137310714D02*
X123978033Y-137215476D01*
X131135416Y-83795830D02*
X131183035Y-83843450D01*
X131183035Y-83843450D02*
X131325892Y-83891069D01*
X131325892Y-83891069D02*
X131421130Y-83891069D01*
X131421130Y-83891069D02*
X131563987Y-83843450D01*
X131563987Y-83843450D02*
X131659225Y-83748211D01*
X131659225Y-83748211D02*
X131706844Y-83652973D01*
X131706844Y-83652973D02*
X131754463Y-83462497D01*
X131754463Y-83462497D02*
X131754463Y-83319640D01*
X131754463Y-83319640D02*
X131706844Y-83129164D01*
X131706844Y-83129164D02*
X131659225Y-83033926D01*
X131659225Y-83033926D02*
X131563987Y-82938688D01*
X131563987Y-82938688D02*
X131421130Y-82891069D01*
X131421130Y-82891069D02*
X131325892Y-82891069D01*
X131325892Y-82891069D02*
X131183035Y-82938688D01*
X131183035Y-82938688D02*
X131135416Y-82986307D01*
X130802082Y-82891069D02*
X130183035Y-82891069D01*
X130183035Y-82891069D02*
X130516368Y-83272021D01*
X130516368Y-83272021D02*
X130373511Y-83272021D01*
X130373511Y-83272021D02*
X130278273Y-83319640D01*
X130278273Y-83319640D02*
X130230654Y-83367259D01*
X130230654Y-83367259D02*
X130183035Y-83462497D01*
X130183035Y-83462497D02*
X130183035Y-83700592D01*
X130183035Y-83700592D02*
X130230654Y-83795830D01*
X130230654Y-83795830D02*
X130278273Y-83843450D01*
X130278273Y-83843450D02*
X130373511Y-83891069D01*
X130373511Y-83891069D02*
X130659225Y-83891069D01*
X130659225Y-83891069D02*
X130754463Y-83843450D01*
X130754463Y-83843450D02*
X130802082Y-83795830D01*
X86592319Y-135786905D02*
X85592319Y-135786905D01*
X85592319Y-135786905D02*
X85592319Y-136025000D01*
X85592319Y-136025000D02*
X85639938Y-136167857D01*
X85639938Y-136167857D02*
X85735176Y-136263095D01*
X85735176Y-136263095D02*
X85830414Y-136310714D01*
X85830414Y-136310714D02*
X86020890Y-136358333D01*
X86020890Y-136358333D02*
X86163747Y-136358333D01*
X86163747Y-136358333D02*
X86354223Y-136310714D01*
X86354223Y-136310714D02*
X86449461Y-136263095D01*
X86449461Y-136263095D02*
X86544700Y-136167857D01*
X86544700Y-136167857D02*
X86592319Y-136025000D01*
X86592319Y-136025000D02*
X86592319Y-135786905D01*
X86592319Y-136834524D02*
X86592319Y-137025000D01*
X86592319Y-137025000D02*
X86544700Y-137120238D01*
X86544700Y-137120238D02*
X86497080Y-137167857D01*
X86497080Y-137167857D02*
X86354223Y-137263095D01*
X86354223Y-137263095D02*
X86163747Y-137310714D01*
X86163747Y-137310714D02*
X85782795Y-137310714D01*
X85782795Y-137310714D02*
X85687557Y-137263095D01*
X85687557Y-137263095D02*
X85639938Y-137215476D01*
X85639938Y-137215476D02*
X85592319Y-137120238D01*
X85592319Y-137120238D02*
X85592319Y-136929762D01*
X85592319Y-136929762D02*
X85639938Y-136834524D01*
X85639938Y-136834524D02*
X85687557Y-136786905D01*
X85687557Y-136786905D02*
X85782795Y-136739286D01*
X85782795Y-136739286D02*
X86020890Y-136739286D01*
X86020890Y-136739286D02*
X86116128Y-136786905D01*
X86116128Y-136786905D02*
X86163747Y-136834524D01*
X86163747Y-136834524D02*
X86211366Y-136929762D01*
X86211366Y-136929762D02*
X86211366Y-137120238D01*
X86211366Y-137120238D02*
X86163747Y-137215476D01*
X86163747Y-137215476D02*
X86116128Y-137263095D01*
X86116128Y-137263095D02*
X86020890Y-137310714D01*
X130341666Y-60592080D02*
X130389285Y-60639700D01*
X130389285Y-60639700D02*
X130532142Y-60687319D01*
X130532142Y-60687319D02*
X130627380Y-60687319D01*
X130627380Y-60687319D02*
X130770237Y-60639700D01*
X130770237Y-60639700D02*
X130865475Y-60544461D01*
X130865475Y-60544461D02*
X130913094Y-60449223D01*
X130913094Y-60449223D02*
X130960713Y-60258747D01*
X130960713Y-60258747D02*
X130960713Y-60115890D01*
X130960713Y-60115890D02*
X130913094Y-59925414D01*
X130913094Y-59925414D02*
X130865475Y-59830176D01*
X130865475Y-59830176D02*
X130770237Y-59734938D01*
X130770237Y-59734938D02*
X130627380Y-59687319D01*
X130627380Y-59687319D02*
X130532142Y-59687319D01*
X130532142Y-59687319D02*
X130389285Y-59734938D01*
X130389285Y-59734938D02*
X130341666Y-59782557D01*
X129389285Y-60687319D02*
X129960713Y-60687319D01*
X129674999Y-60687319D02*
X129674999Y-59687319D01*
X129674999Y-59687319D02*
X129770237Y-59830176D01*
X129770237Y-59830176D02*
X129865475Y-59925414D01*
X129865475Y-59925414D02*
X129960713Y-59973033D01*
X118211069Y-72263095D02*
X119020592Y-72263095D01*
X119020592Y-72263095D02*
X119115830Y-72310714D01*
X119115830Y-72310714D02*
X119163450Y-72358333D01*
X119163450Y-72358333D02*
X119211069Y-72453571D01*
X119211069Y-72453571D02*
X119211069Y-72644047D01*
X119211069Y-72644047D02*
X119163450Y-72739285D01*
X119163450Y-72739285D02*
X119115830Y-72786904D01*
X119115830Y-72786904D02*
X119020592Y-72834523D01*
X119020592Y-72834523D02*
X118211069Y-72834523D01*
X119211069Y-73834523D02*
X119211069Y-73263095D01*
X119211069Y-73548809D02*
X118211069Y-73548809D01*
X118211069Y-73548809D02*
X118353926Y-73453571D01*
X118353926Y-73453571D02*
X118449164Y-73358333D01*
X118449164Y-73358333D02*
X118496783Y-73263095D01*
X125011069Y-60952083D02*
X124534878Y-60618750D01*
X125011069Y-60380655D02*
X124011069Y-60380655D01*
X124011069Y-60380655D02*
X124011069Y-60761607D01*
X124011069Y-60761607D02*
X124058688Y-60856845D01*
X124058688Y-60856845D02*
X124106307Y-60904464D01*
X124106307Y-60904464D02*
X124201545Y-60952083D01*
X124201545Y-60952083D02*
X124344402Y-60952083D01*
X124344402Y-60952083D02*
X124439640Y-60904464D01*
X124439640Y-60904464D02*
X124487259Y-60856845D01*
X124487259Y-60856845D02*
X124534878Y-60761607D01*
X124534878Y-60761607D02*
X124534878Y-60380655D01*
X124106307Y-61333036D02*
X124058688Y-61380655D01*
X124058688Y-61380655D02*
X124011069Y-61475893D01*
X124011069Y-61475893D02*
X124011069Y-61713988D01*
X124011069Y-61713988D02*
X124058688Y-61809226D01*
X124058688Y-61809226D02*
X124106307Y-61856845D01*
X124106307Y-61856845D02*
X124201545Y-61904464D01*
X124201545Y-61904464D02*
X124296783Y-61904464D01*
X124296783Y-61904464D02*
X124439640Y-61856845D01*
X124439640Y-61856845D02*
X125011069Y-61285417D01*
X125011069Y-61285417D02*
X125011069Y-61904464D01*
X86592319Y-116736905D02*
X85592319Y-116736905D01*
X85592319Y-116736905D02*
X85592319Y-116975000D01*
X85592319Y-116975000D02*
X85639938Y-117117857D01*
X85639938Y-117117857D02*
X85735176Y-117213095D01*
X85735176Y-117213095D02*
X85830414Y-117260714D01*
X85830414Y-117260714D02*
X86020890Y-117308333D01*
X86020890Y-117308333D02*
X86163747Y-117308333D01*
X86163747Y-117308333D02*
X86354223Y-117260714D01*
X86354223Y-117260714D02*
X86449461Y-117213095D01*
X86449461Y-117213095D02*
X86544700Y-117117857D01*
X86544700Y-117117857D02*
X86592319Y-116975000D01*
X86592319Y-116975000D02*
X86592319Y-116736905D01*
X85592319Y-118213095D02*
X85592319Y-117736905D01*
X85592319Y-117736905D02*
X86068509Y-117689286D01*
X86068509Y-117689286D02*
X86020890Y-117736905D01*
X86020890Y-117736905D02*
X85973271Y-117832143D01*
X85973271Y-117832143D02*
X85973271Y-118070238D01*
X85973271Y-118070238D02*
X86020890Y-118165476D01*
X86020890Y-118165476D02*
X86068509Y-118213095D01*
X86068509Y-118213095D02*
X86163747Y-118260714D01*
X86163747Y-118260714D02*
X86401842Y-118260714D01*
X86401842Y-118260714D02*
X86497080Y-118213095D01*
X86497080Y-118213095D02*
X86544700Y-118165476D01*
X86544700Y-118165476D02*
X86592319Y-118070238D01*
X86592319Y-118070238D02*
X86592319Y-117832143D01*
X86592319Y-117832143D02*
X86544700Y-117736905D01*
X86544700Y-117736905D02*
X86497080Y-117689286D01*
X139866666Y-70302080D02*
X139914285Y-70349700D01*
X139914285Y-70349700D02*
X140057142Y-70397319D01*
X140057142Y-70397319D02*
X140152380Y-70397319D01*
X140152380Y-70397319D02*
X140295237Y-70349700D01*
X140295237Y-70349700D02*
X140390475Y-70254461D01*
X140390475Y-70254461D02*
X140438094Y-70159223D01*
X140438094Y-70159223D02*
X140485713Y-69968747D01*
X140485713Y-69968747D02*
X140485713Y-69825890D01*
X140485713Y-69825890D02*
X140438094Y-69635414D01*
X140438094Y-69635414D02*
X140390475Y-69540176D01*
X140390475Y-69540176D02*
X140295237Y-69444938D01*
X140295237Y-69444938D02*
X140152380Y-69397319D01*
X140152380Y-69397319D02*
X140057142Y-69397319D01*
X140057142Y-69397319D02*
X139914285Y-69444938D01*
X139914285Y-69444938D02*
X139866666Y-69492557D01*
X139533332Y-69397319D02*
X138866666Y-69397319D01*
X138866666Y-69397319D02*
X139295237Y-70397319D01*
X143392319Y-60158333D02*
X142916128Y-59825000D01*
X143392319Y-59586905D02*
X142392319Y-59586905D01*
X142392319Y-59586905D02*
X142392319Y-59967857D01*
X142392319Y-59967857D02*
X142439938Y-60063095D01*
X142439938Y-60063095D02*
X142487557Y-60110714D01*
X142487557Y-60110714D02*
X142582795Y-60158333D01*
X142582795Y-60158333D02*
X142725652Y-60158333D01*
X142725652Y-60158333D02*
X142820890Y-60110714D01*
X142820890Y-60110714D02*
X142868509Y-60063095D01*
X142868509Y-60063095D02*
X142916128Y-59967857D01*
X142916128Y-59967857D02*
X142916128Y-59586905D01*
X142725652Y-61015476D02*
X143392319Y-61015476D01*
X142344700Y-60777381D02*
X143058985Y-60539286D01*
X143058985Y-60539286D02*
X143058985Y-61158333D01*
X124692319Y-97686905D02*
X123692319Y-97686905D01*
X123692319Y-97686905D02*
X123692319Y-97925000D01*
X123692319Y-97925000D02*
X123739938Y-98067857D01*
X123739938Y-98067857D02*
X123835176Y-98163095D01*
X123835176Y-98163095D02*
X123930414Y-98210714D01*
X123930414Y-98210714D02*
X124120890Y-98258333D01*
X124120890Y-98258333D02*
X124263747Y-98258333D01*
X124263747Y-98258333D02*
X124454223Y-98210714D01*
X124454223Y-98210714D02*
X124549461Y-98163095D01*
X124549461Y-98163095D02*
X124644700Y-98067857D01*
X124644700Y-98067857D02*
X124692319Y-97925000D01*
X124692319Y-97925000D02*
X124692319Y-97686905D01*
X123692319Y-98591667D02*
X123692319Y-99210714D01*
X123692319Y-99210714D02*
X124073271Y-98877381D01*
X124073271Y-98877381D02*
X124073271Y-99020238D01*
X124073271Y-99020238D02*
X124120890Y-99115476D01*
X124120890Y-99115476D02*
X124168509Y-99163095D01*
X124168509Y-99163095D02*
X124263747Y-99210714D01*
X124263747Y-99210714D02*
X124501842Y-99210714D01*
X124501842Y-99210714D02*
X124597080Y-99163095D01*
X124597080Y-99163095D02*
X124644700Y-99115476D01*
X124644700Y-99115476D02*
X124692319Y-99020238D01*
X124692319Y-99020238D02*
X124692319Y-98734524D01*
X124692319Y-98734524D02*
X124644700Y-98639286D01*
X124644700Y-98639286D02*
X124597080Y-98591667D01*
X119229166Y-66333330D02*
X119276785Y-66380950D01*
X119276785Y-66380950D02*
X119419642Y-66428569D01*
X119419642Y-66428569D02*
X119514880Y-66428569D01*
X119514880Y-66428569D02*
X119657737Y-66380950D01*
X119657737Y-66380950D02*
X119752975Y-66285711D01*
X119752975Y-66285711D02*
X119800594Y-66190473D01*
X119800594Y-66190473D02*
X119848213Y-65999997D01*
X119848213Y-65999997D02*
X119848213Y-65857140D01*
X119848213Y-65857140D02*
X119800594Y-65666664D01*
X119800594Y-65666664D02*
X119752975Y-65571426D01*
X119752975Y-65571426D02*
X119657737Y-65476188D01*
X119657737Y-65476188D02*
X119514880Y-65428569D01*
X119514880Y-65428569D02*
X119419642Y-65428569D01*
X119419642Y-65428569D02*
X119276785Y-65476188D01*
X119276785Y-65476188D02*
X119229166Y-65523807D01*
X118372023Y-65761902D02*
X118372023Y-66428569D01*
X118610118Y-65380950D02*
X118848213Y-66095235D01*
X118848213Y-66095235D02*
X118229166Y-66095235D01*
X121836069Y-60952083D02*
X121359878Y-60618750D01*
X121836069Y-60380655D02*
X120836069Y-60380655D01*
X120836069Y-60380655D02*
X120836069Y-60761607D01*
X120836069Y-60761607D02*
X120883688Y-60856845D01*
X120883688Y-60856845D02*
X120931307Y-60904464D01*
X120931307Y-60904464D02*
X121026545Y-60952083D01*
X121026545Y-60952083D02*
X121169402Y-60952083D01*
X121169402Y-60952083D02*
X121264640Y-60904464D01*
X121264640Y-60904464D02*
X121312259Y-60856845D01*
X121312259Y-60856845D02*
X121359878Y-60761607D01*
X121359878Y-60761607D02*
X121359878Y-60380655D01*
X120836069Y-61285417D02*
X120836069Y-61904464D01*
X120836069Y-61904464D02*
X121217021Y-61571131D01*
X121217021Y-61571131D02*
X121217021Y-61713988D01*
X121217021Y-61713988D02*
X121264640Y-61809226D01*
X121264640Y-61809226D02*
X121312259Y-61856845D01*
X121312259Y-61856845D02*
X121407497Y-61904464D01*
X121407497Y-61904464D02*
X121645592Y-61904464D01*
X121645592Y-61904464D02*
X121740830Y-61856845D01*
X121740830Y-61856845D02*
X121788450Y-61809226D01*
X121788450Y-61809226D02*
X121836069Y-61713988D01*
X121836069Y-61713988D02*
X121836069Y-61428274D01*
X121836069Y-61428274D02*
X121788450Y-61333036D01*
X121788450Y-61333036D02*
X121740830Y-61285417D01*
X139866666Y-78054580D02*
X139914285Y-78102200D01*
X139914285Y-78102200D02*
X140057142Y-78149819D01*
X140057142Y-78149819D02*
X140152380Y-78149819D01*
X140152380Y-78149819D02*
X140295237Y-78102200D01*
X140295237Y-78102200D02*
X140390475Y-78006961D01*
X140390475Y-78006961D02*
X140438094Y-77911723D01*
X140438094Y-77911723D02*
X140485713Y-77721247D01*
X140485713Y-77721247D02*
X140485713Y-77578390D01*
X140485713Y-77578390D02*
X140438094Y-77387914D01*
X140438094Y-77387914D02*
X140390475Y-77292676D01*
X140390475Y-77292676D02*
X140295237Y-77197438D01*
X140295237Y-77197438D02*
X140152380Y-77149819D01*
X140152380Y-77149819D02*
X140057142Y-77149819D01*
X140057142Y-77149819D02*
X139914285Y-77197438D01*
X139914285Y-77197438D02*
X139866666Y-77245057D01*
X139009523Y-77149819D02*
X139199999Y-77149819D01*
X139199999Y-77149819D02*
X139295237Y-77197438D01*
X139295237Y-77197438D02*
X139342856Y-77245057D01*
X139342856Y-77245057D02*
X139438094Y-77387914D01*
X139438094Y-77387914D02*
X139485713Y-77578390D01*
X139485713Y-77578390D02*
X139485713Y-77959342D01*
X139485713Y-77959342D02*
X139438094Y-78054580D01*
X139438094Y-78054580D02*
X139390475Y-78102200D01*
X139390475Y-78102200D02*
X139295237Y-78149819D01*
X139295237Y-78149819D02*
X139104761Y-78149819D01*
X139104761Y-78149819D02*
X139009523Y-78102200D01*
X139009523Y-78102200D02*
X138961904Y-78054580D01*
X138961904Y-78054580D02*
X138914285Y-77959342D01*
X138914285Y-77959342D02*
X138914285Y-77721247D01*
X138914285Y-77721247D02*
X138961904Y-77626009D01*
X138961904Y-77626009D02*
X139009523Y-77578390D01*
X139009523Y-77578390D02*
X139104761Y-77530771D01*
X139104761Y-77530771D02*
X139295237Y-77530771D01*
X139295237Y-77530771D02*
X139390475Y-77578390D01*
X139390475Y-77578390D02*
X139438094Y-77626009D01*
X139438094Y-77626009D02*
X139485713Y-77721247D01*
X86592319Y-97686905D02*
X85592319Y-97686905D01*
X85592319Y-97686905D02*
X85592319Y-97925000D01*
X85592319Y-97925000D02*
X85639938Y-98067857D01*
X85639938Y-98067857D02*
X85735176Y-98163095D01*
X85735176Y-98163095D02*
X85830414Y-98210714D01*
X85830414Y-98210714D02*
X86020890Y-98258333D01*
X86020890Y-98258333D02*
X86163747Y-98258333D01*
X86163747Y-98258333D02*
X86354223Y-98210714D01*
X86354223Y-98210714D02*
X86449461Y-98163095D01*
X86449461Y-98163095D02*
X86544700Y-98067857D01*
X86544700Y-98067857D02*
X86592319Y-97925000D01*
X86592319Y-97925000D02*
X86592319Y-97686905D01*
X86592319Y-99210714D02*
X86592319Y-98639286D01*
X86592319Y-98925000D02*
X85592319Y-98925000D01*
X85592319Y-98925000D02*
X85735176Y-98829762D01*
X85735176Y-98829762D02*
X85830414Y-98734524D01*
X85830414Y-98734524D02*
X85878033Y-98639286D01*
X118720830Y-77620833D02*
X118768450Y-77573214D01*
X118768450Y-77573214D02*
X118816069Y-77430357D01*
X118816069Y-77430357D02*
X118816069Y-77335119D01*
X118816069Y-77335119D02*
X118768450Y-77192262D01*
X118768450Y-77192262D02*
X118673211Y-77097024D01*
X118673211Y-77097024D02*
X118577973Y-77049405D01*
X118577973Y-77049405D02*
X118387497Y-77001786D01*
X118387497Y-77001786D02*
X118244640Y-77001786D01*
X118244640Y-77001786D02*
X118054164Y-77049405D01*
X118054164Y-77049405D02*
X117958926Y-77097024D01*
X117958926Y-77097024D02*
X117863688Y-77192262D01*
X117863688Y-77192262D02*
X117816069Y-77335119D01*
X117816069Y-77335119D02*
X117816069Y-77430357D01*
X117816069Y-77430357D02*
X117863688Y-77573214D01*
X117863688Y-77573214D02*
X117911307Y-77620833D01*
X117911307Y-78001786D02*
X117863688Y-78049405D01*
X117863688Y-78049405D02*
X117816069Y-78144643D01*
X117816069Y-78144643D02*
X117816069Y-78382738D01*
X117816069Y-78382738D02*
X117863688Y-78477976D01*
X117863688Y-78477976D02*
X117911307Y-78525595D01*
X117911307Y-78525595D02*
X118006545Y-78573214D01*
X118006545Y-78573214D02*
X118101783Y-78573214D01*
X118101783Y-78573214D02*
X118244640Y-78525595D01*
X118244640Y-78525595D02*
X118816069Y-77954167D01*
X118816069Y-77954167D02*
X118816069Y-78573214D01*
X105642319Y-97686905D02*
X104642319Y-97686905D01*
X104642319Y-97686905D02*
X104642319Y-97925000D01*
X104642319Y-97925000D02*
X104689938Y-98067857D01*
X104689938Y-98067857D02*
X104785176Y-98163095D01*
X104785176Y-98163095D02*
X104880414Y-98210714D01*
X104880414Y-98210714D02*
X105070890Y-98258333D01*
X105070890Y-98258333D02*
X105213747Y-98258333D01*
X105213747Y-98258333D02*
X105404223Y-98210714D01*
X105404223Y-98210714D02*
X105499461Y-98163095D01*
X105499461Y-98163095D02*
X105594700Y-98067857D01*
X105594700Y-98067857D02*
X105642319Y-97925000D01*
X105642319Y-97925000D02*
X105642319Y-97686905D01*
X104737557Y-98639286D02*
X104689938Y-98686905D01*
X104689938Y-98686905D02*
X104642319Y-98782143D01*
X104642319Y-98782143D02*
X104642319Y-99020238D01*
X104642319Y-99020238D02*
X104689938Y-99115476D01*
X104689938Y-99115476D02*
X104737557Y-99163095D01*
X104737557Y-99163095D02*
X104832795Y-99210714D01*
X104832795Y-99210714D02*
X104928033Y-99210714D01*
X104928033Y-99210714D02*
X105070890Y-99163095D01*
X105070890Y-99163095D02*
X105642319Y-98591667D01*
X105642319Y-98591667D02*
X105642319Y-99210714D01*
X124692319Y-154360714D02*
X123692319Y-154360714D01*
X123692319Y-154360714D02*
X123692319Y-154598809D01*
X123692319Y-154598809D02*
X123739938Y-154741666D01*
X123739938Y-154741666D02*
X123835176Y-154836904D01*
X123835176Y-154836904D02*
X123930414Y-154884523D01*
X123930414Y-154884523D02*
X124120890Y-154932142D01*
X124120890Y-154932142D02*
X124263747Y-154932142D01*
X124263747Y-154932142D02*
X124454223Y-154884523D01*
X124454223Y-154884523D02*
X124549461Y-154836904D01*
X124549461Y-154836904D02*
X124644700Y-154741666D01*
X124644700Y-154741666D02*
X124692319Y-154598809D01*
X124692319Y-154598809D02*
X124692319Y-154360714D01*
X124692319Y-155884523D02*
X124692319Y-155313095D01*
X124692319Y-155598809D02*
X123692319Y-155598809D01*
X123692319Y-155598809D02*
X123835176Y-155503571D01*
X123835176Y-155503571D02*
X123930414Y-155408333D01*
X123930414Y-155408333D02*
X123978033Y-155313095D01*
X123692319Y-156789285D02*
X123692319Y-156313095D01*
X123692319Y-156313095D02*
X124168509Y-156265476D01*
X124168509Y-156265476D02*
X124120890Y-156313095D01*
X124120890Y-156313095D02*
X124073271Y-156408333D01*
X124073271Y-156408333D02*
X124073271Y-156646428D01*
X124073271Y-156646428D02*
X124120890Y-156741666D01*
X124120890Y-156741666D02*
X124168509Y-156789285D01*
X124168509Y-156789285D02*
X124263747Y-156836904D01*
X124263747Y-156836904D02*
X124501842Y-156836904D01*
X124501842Y-156836904D02*
X124597080Y-156789285D01*
X124597080Y-156789285D02*
X124644700Y-156741666D01*
X124644700Y-156741666D02*
X124692319Y-156646428D01*
X124692319Y-156646428D02*
X124692319Y-156408333D01*
X124692319Y-156408333D02*
X124644700Y-156313095D01*
X124644700Y-156313095D02*
X124597080Y-156265476D01*
X105642319Y-154360714D02*
X104642319Y-154360714D01*
X104642319Y-154360714D02*
X104642319Y-154598809D01*
X104642319Y-154598809D02*
X104689938Y-154741666D01*
X104689938Y-154741666D02*
X104785176Y-154836904D01*
X104785176Y-154836904D02*
X104880414Y-154884523D01*
X104880414Y-154884523D02*
X105070890Y-154932142D01*
X105070890Y-154932142D02*
X105213747Y-154932142D01*
X105213747Y-154932142D02*
X105404223Y-154884523D01*
X105404223Y-154884523D02*
X105499461Y-154836904D01*
X105499461Y-154836904D02*
X105594700Y-154741666D01*
X105594700Y-154741666D02*
X105642319Y-154598809D01*
X105642319Y-154598809D02*
X105642319Y-154360714D01*
X105642319Y-155884523D02*
X105642319Y-155313095D01*
X105642319Y-155598809D02*
X104642319Y-155598809D01*
X104642319Y-155598809D02*
X104785176Y-155503571D01*
X104785176Y-155503571D02*
X104880414Y-155408333D01*
X104880414Y-155408333D02*
X104928033Y-155313095D01*
X104975652Y-156741666D02*
X105642319Y-156741666D01*
X104594700Y-156503571D02*
X105308985Y-156265476D01*
X105308985Y-156265476D02*
X105308985Y-156884523D01*
X86592319Y-154360714D02*
X85592319Y-154360714D01*
X85592319Y-154360714D02*
X85592319Y-154598809D01*
X85592319Y-154598809D02*
X85639938Y-154741666D01*
X85639938Y-154741666D02*
X85735176Y-154836904D01*
X85735176Y-154836904D02*
X85830414Y-154884523D01*
X85830414Y-154884523D02*
X86020890Y-154932142D01*
X86020890Y-154932142D02*
X86163747Y-154932142D01*
X86163747Y-154932142D02*
X86354223Y-154884523D01*
X86354223Y-154884523D02*
X86449461Y-154836904D01*
X86449461Y-154836904D02*
X86544700Y-154741666D01*
X86544700Y-154741666D02*
X86592319Y-154598809D01*
X86592319Y-154598809D02*
X86592319Y-154360714D01*
X86592319Y-155884523D02*
X86592319Y-155313095D01*
X86592319Y-155598809D02*
X85592319Y-155598809D01*
X85592319Y-155598809D02*
X85735176Y-155503571D01*
X85735176Y-155503571D02*
X85830414Y-155408333D01*
X85830414Y-155408333D02*
X85878033Y-155313095D01*
X85592319Y-156217857D02*
X85592319Y-156836904D01*
X85592319Y-156836904D02*
X85973271Y-156503571D01*
X85973271Y-156503571D02*
X85973271Y-156646428D01*
X85973271Y-156646428D02*
X86020890Y-156741666D01*
X86020890Y-156741666D02*
X86068509Y-156789285D01*
X86068509Y-156789285D02*
X86163747Y-156836904D01*
X86163747Y-156836904D02*
X86401842Y-156836904D01*
X86401842Y-156836904D02*
X86497080Y-156789285D01*
X86497080Y-156789285D02*
X86544700Y-156741666D01*
X86544700Y-156741666D02*
X86592319Y-156646428D01*
X86592319Y-156646428D02*
X86592319Y-156360714D01*
X86592319Y-156360714D02*
X86544700Y-156265476D01*
X86544700Y-156265476D02*
X86497080Y-156217857D01*
X143742319Y-154360714D02*
X142742319Y-154360714D01*
X142742319Y-154360714D02*
X142742319Y-154598809D01*
X142742319Y-154598809D02*
X142789938Y-154741666D01*
X142789938Y-154741666D02*
X142885176Y-154836904D01*
X142885176Y-154836904D02*
X142980414Y-154884523D01*
X142980414Y-154884523D02*
X143170890Y-154932142D01*
X143170890Y-154932142D02*
X143313747Y-154932142D01*
X143313747Y-154932142D02*
X143504223Y-154884523D01*
X143504223Y-154884523D02*
X143599461Y-154836904D01*
X143599461Y-154836904D02*
X143694700Y-154741666D01*
X143694700Y-154741666D02*
X143742319Y-154598809D01*
X143742319Y-154598809D02*
X143742319Y-154360714D01*
X143742319Y-155884523D02*
X143742319Y-155313095D01*
X143742319Y-155598809D02*
X142742319Y-155598809D01*
X142742319Y-155598809D02*
X142885176Y-155503571D01*
X142885176Y-155503571D02*
X142980414Y-155408333D01*
X142980414Y-155408333D02*
X143028033Y-155313095D01*
X142742319Y-156741666D02*
X142742319Y-156551190D01*
X142742319Y-156551190D02*
X142789938Y-156455952D01*
X142789938Y-156455952D02*
X142837557Y-156408333D01*
X142837557Y-156408333D02*
X142980414Y-156313095D01*
X142980414Y-156313095D02*
X143170890Y-156265476D01*
X143170890Y-156265476D02*
X143551842Y-156265476D01*
X143551842Y-156265476D02*
X143647080Y-156313095D01*
X143647080Y-156313095D02*
X143694700Y-156360714D01*
X143694700Y-156360714D02*
X143742319Y-156455952D01*
X143742319Y-156455952D02*
X143742319Y-156646428D01*
X143742319Y-156646428D02*
X143694700Y-156741666D01*
X143694700Y-156741666D02*
X143647080Y-156789285D01*
X143647080Y-156789285D02*
X143551842Y-156836904D01*
X143551842Y-156836904D02*
X143313747Y-156836904D01*
X143313747Y-156836904D02*
X143218509Y-156789285D01*
X143218509Y-156789285D02*
X143170890Y-156741666D01*
X143170890Y-156741666D02*
X143123271Y-156646428D01*
X143123271Y-156646428D02*
X143123271Y-156455952D01*
X143123271Y-156455952D02*
X143170890Y-156360714D01*
X143170890Y-156360714D02*
X143218509Y-156313095D01*
X143218509Y-156313095D02*
X143313747Y-156265476D01*
X115360830Y-69683333D02*
X115408450Y-69635714D01*
X115408450Y-69635714D02*
X115456069Y-69492857D01*
X115456069Y-69492857D02*
X115456069Y-69397619D01*
X115456069Y-69397619D02*
X115408450Y-69254762D01*
X115408450Y-69254762D02*
X115313211Y-69159524D01*
X115313211Y-69159524D02*
X115217973Y-69111905D01*
X115217973Y-69111905D02*
X115027497Y-69064286D01*
X115027497Y-69064286D02*
X114884640Y-69064286D01*
X114884640Y-69064286D02*
X114694164Y-69111905D01*
X114694164Y-69111905D02*
X114598926Y-69159524D01*
X114598926Y-69159524D02*
X114503688Y-69254762D01*
X114503688Y-69254762D02*
X114456069Y-69397619D01*
X114456069Y-69397619D02*
X114456069Y-69492857D01*
X114456069Y-69492857D02*
X114503688Y-69635714D01*
X114503688Y-69635714D02*
X114551307Y-69683333D01*
X114456069Y-70588095D02*
X114456069Y-70111905D01*
X114456069Y-70111905D02*
X114932259Y-70064286D01*
X114932259Y-70064286D02*
X114884640Y-70111905D01*
X114884640Y-70111905D02*
X114837021Y-70207143D01*
X114837021Y-70207143D02*
X114837021Y-70445238D01*
X114837021Y-70445238D02*
X114884640Y-70540476D01*
X114884640Y-70540476D02*
X114932259Y-70588095D01*
X114932259Y-70588095D02*
X115027497Y-70635714D01*
X115027497Y-70635714D02*
X115265592Y-70635714D01*
X115265592Y-70635714D02*
X115360830Y-70588095D01*
X115360830Y-70588095D02*
X115408450Y-70540476D01*
X115408450Y-70540476D02*
X115456069Y-70445238D01*
X115456069Y-70445238D02*
X115456069Y-70207143D01*
X115456069Y-70207143D02*
X115408450Y-70111905D01*
X115408450Y-70111905D02*
X115360830Y-70064286D01*
X105642319Y-116736905D02*
X104642319Y-116736905D01*
X104642319Y-116736905D02*
X104642319Y-116975000D01*
X104642319Y-116975000D02*
X104689938Y-117117857D01*
X104689938Y-117117857D02*
X104785176Y-117213095D01*
X104785176Y-117213095D02*
X104880414Y-117260714D01*
X104880414Y-117260714D02*
X105070890Y-117308333D01*
X105070890Y-117308333D02*
X105213747Y-117308333D01*
X105213747Y-117308333D02*
X105404223Y-117260714D01*
X105404223Y-117260714D02*
X105499461Y-117213095D01*
X105499461Y-117213095D02*
X105594700Y-117117857D01*
X105594700Y-117117857D02*
X105642319Y-116975000D01*
X105642319Y-116975000D02*
X105642319Y-116736905D01*
X104642319Y-118165476D02*
X104642319Y-117975000D01*
X104642319Y-117975000D02*
X104689938Y-117879762D01*
X104689938Y-117879762D02*
X104737557Y-117832143D01*
X104737557Y-117832143D02*
X104880414Y-117736905D01*
X104880414Y-117736905D02*
X105070890Y-117689286D01*
X105070890Y-117689286D02*
X105451842Y-117689286D01*
X105451842Y-117689286D02*
X105547080Y-117736905D01*
X105547080Y-117736905D02*
X105594700Y-117784524D01*
X105594700Y-117784524D02*
X105642319Y-117879762D01*
X105642319Y-117879762D02*
X105642319Y-118070238D01*
X105642319Y-118070238D02*
X105594700Y-118165476D01*
X105594700Y-118165476D02*
X105547080Y-118213095D01*
X105547080Y-118213095D02*
X105451842Y-118260714D01*
X105451842Y-118260714D02*
X105213747Y-118260714D01*
X105213747Y-118260714D02*
X105118509Y-118213095D01*
X105118509Y-118213095D02*
X105070890Y-118165476D01*
X105070890Y-118165476D02*
X105023271Y-118070238D01*
X105023271Y-118070238D02*
X105023271Y-117879762D01*
X105023271Y-117879762D02*
X105070890Y-117784524D01*
X105070890Y-117784524D02*
X105118509Y-117736905D01*
X105118509Y-117736905D02*
X105213747Y-117689286D01*
X124692319Y-116736905D02*
X123692319Y-116736905D01*
X123692319Y-116736905D02*
X123692319Y-116975000D01*
X123692319Y-116975000D02*
X123739938Y-117117857D01*
X123739938Y-117117857D02*
X123835176Y-117213095D01*
X123835176Y-117213095D02*
X123930414Y-117260714D01*
X123930414Y-117260714D02*
X124120890Y-117308333D01*
X124120890Y-117308333D02*
X124263747Y-117308333D01*
X124263747Y-117308333D02*
X124454223Y-117260714D01*
X124454223Y-117260714D02*
X124549461Y-117213095D01*
X124549461Y-117213095D02*
X124644700Y-117117857D01*
X124644700Y-117117857D02*
X124692319Y-116975000D01*
X124692319Y-116975000D02*
X124692319Y-116736905D01*
X123692319Y-117641667D02*
X123692319Y-118308333D01*
X123692319Y-118308333D02*
X124692319Y-117879762D01*
X142728628Y-73342559D02*
X143204819Y-73342559D01*
X142204819Y-73009226D02*
X142728628Y-73342559D01*
X142728628Y-73342559D02*
X142204819Y-73675892D01*
X143204819Y-74533035D02*
X143204819Y-73961607D01*
X143204819Y-74247321D02*
X142204819Y-74247321D01*
X142204819Y-74247321D02*
X142347676Y-74152083D01*
X142347676Y-74152083D02*
X142442914Y-74056845D01*
X142442914Y-74056845D02*
X142490533Y-73961607D01*
X120816666Y-80561069D02*
X121149999Y-80084878D01*
X121388094Y-80561069D02*
X121388094Y-79561069D01*
X121388094Y-79561069D02*
X121007142Y-79561069D01*
X121007142Y-79561069D02*
X120911904Y-79608688D01*
X120911904Y-79608688D02*
X120864285Y-79656307D01*
X120864285Y-79656307D02*
X120816666Y-79751545D01*
X120816666Y-79751545D02*
X120816666Y-79894402D01*
X120816666Y-79894402D02*
X120864285Y-79989640D01*
X120864285Y-79989640D02*
X120911904Y-80037259D01*
X120911904Y-80037259D02*
X121007142Y-80084878D01*
X121007142Y-80084878D02*
X121388094Y-80084878D01*
X119864285Y-80561069D02*
X120435713Y-80561069D01*
X120149999Y-80561069D02*
X120149999Y-79561069D01*
X120149999Y-79561069D02*
X120245237Y-79703926D01*
X120245237Y-79703926D02*
X120340475Y-79799164D01*
X120340475Y-79799164D02*
X120435713Y-79846783D01*
X131280700Y-54229167D02*
X131328319Y-54372024D01*
X131328319Y-54372024D02*
X131328319Y-54610119D01*
X131328319Y-54610119D02*
X131280700Y-54705357D01*
X131280700Y-54705357D02*
X131233080Y-54752976D01*
X131233080Y-54752976D02*
X131137842Y-54800595D01*
X131137842Y-54800595D02*
X131042604Y-54800595D01*
X131042604Y-54800595D02*
X130947366Y-54752976D01*
X130947366Y-54752976D02*
X130899747Y-54705357D01*
X130899747Y-54705357D02*
X130852128Y-54610119D01*
X130852128Y-54610119D02*
X130804509Y-54419643D01*
X130804509Y-54419643D02*
X130756890Y-54324405D01*
X130756890Y-54324405D02*
X130709271Y-54276786D01*
X130709271Y-54276786D02*
X130614033Y-54229167D01*
X130614033Y-54229167D02*
X130518795Y-54229167D01*
X130518795Y-54229167D02*
X130423557Y-54276786D01*
X130423557Y-54276786D02*
X130375938Y-54324405D01*
X130375938Y-54324405D02*
X130328319Y-54419643D01*
X130328319Y-54419643D02*
X130328319Y-54657738D01*
X130328319Y-54657738D02*
X130375938Y-54800595D01*
X130328319Y-55133929D02*
X131328319Y-55372024D01*
X131328319Y-55372024D02*
X130614033Y-55562500D01*
X130614033Y-55562500D02*
X131328319Y-55752976D01*
X131328319Y-55752976D02*
X130328319Y-55991072D01*
X131328319Y-56895833D02*
X131328319Y-56324405D01*
X131328319Y-56610119D02*
X130328319Y-56610119D01*
X130328319Y-56610119D02*
X130471176Y-56514881D01*
X130471176Y-56514881D02*
X130566414Y-56419643D01*
X130566414Y-56419643D02*
X130614033Y-56324405D01*
X105642319Y-135310714D02*
X104642319Y-135310714D01*
X104642319Y-135310714D02*
X104642319Y-135548809D01*
X104642319Y-135548809D02*
X104689938Y-135691666D01*
X104689938Y-135691666D02*
X104785176Y-135786904D01*
X104785176Y-135786904D02*
X104880414Y-135834523D01*
X104880414Y-135834523D02*
X105070890Y-135882142D01*
X105070890Y-135882142D02*
X105213747Y-135882142D01*
X105213747Y-135882142D02*
X105404223Y-135834523D01*
X105404223Y-135834523D02*
X105499461Y-135786904D01*
X105499461Y-135786904D02*
X105594700Y-135691666D01*
X105594700Y-135691666D02*
X105642319Y-135548809D01*
X105642319Y-135548809D02*
X105642319Y-135310714D01*
X105642319Y-136834523D02*
X105642319Y-136263095D01*
X105642319Y-136548809D02*
X104642319Y-136548809D01*
X104642319Y-136548809D02*
X104785176Y-136453571D01*
X104785176Y-136453571D02*
X104880414Y-136358333D01*
X104880414Y-136358333D02*
X104928033Y-136263095D01*
X104642319Y-137453571D02*
X104642319Y-137548809D01*
X104642319Y-137548809D02*
X104689938Y-137644047D01*
X104689938Y-137644047D02*
X104737557Y-137691666D01*
X104737557Y-137691666D02*
X104832795Y-137739285D01*
X104832795Y-137739285D02*
X105023271Y-137786904D01*
X105023271Y-137786904D02*
X105261366Y-137786904D01*
X105261366Y-137786904D02*
X105451842Y-137739285D01*
X105451842Y-137739285D02*
X105547080Y-137691666D01*
X105547080Y-137691666D02*
X105594700Y-137644047D01*
X105594700Y-137644047D02*
X105642319Y-137548809D01*
X105642319Y-137548809D02*
X105642319Y-137453571D01*
X105642319Y-137453571D02*
X105594700Y-137358333D01*
X105594700Y-137358333D02*
X105547080Y-137310714D01*
X105547080Y-137310714D02*
X105451842Y-137263095D01*
X105451842Y-137263095D02*
X105261366Y-137215476D01*
X105261366Y-137215476D02*
X105023271Y-137215476D01*
X105023271Y-137215476D02*
X104832795Y-137263095D01*
X104832795Y-137263095D02*
X104737557Y-137310714D01*
X104737557Y-137310714D02*
X104689938Y-137358333D01*
X104689938Y-137358333D02*
X104642319Y-137453571D01*
X143742319Y-135310714D02*
X142742319Y-135310714D01*
X142742319Y-135310714D02*
X142742319Y-135548809D01*
X142742319Y-135548809D02*
X142789938Y-135691666D01*
X142789938Y-135691666D02*
X142885176Y-135786904D01*
X142885176Y-135786904D02*
X142980414Y-135834523D01*
X142980414Y-135834523D02*
X143170890Y-135882142D01*
X143170890Y-135882142D02*
X143313747Y-135882142D01*
X143313747Y-135882142D02*
X143504223Y-135834523D01*
X143504223Y-135834523D02*
X143599461Y-135786904D01*
X143599461Y-135786904D02*
X143694700Y-135691666D01*
X143694700Y-135691666D02*
X143742319Y-135548809D01*
X143742319Y-135548809D02*
X143742319Y-135310714D01*
X143742319Y-136834523D02*
X143742319Y-136263095D01*
X143742319Y-136548809D02*
X142742319Y-136548809D01*
X142742319Y-136548809D02*
X142885176Y-136453571D01*
X142885176Y-136453571D02*
X142980414Y-136358333D01*
X142980414Y-136358333D02*
X143028033Y-136263095D01*
X142837557Y-137215476D02*
X142789938Y-137263095D01*
X142789938Y-137263095D02*
X142742319Y-137358333D01*
X142742319Y-137358333D02*
X142742319Y-137596428D01*
X142742319Y-137596428D02*
X142789938Y-137691666D01*
X142789938Y-137691666D02*
X142837557Y-137739285D01*
X142837557Y-137739285D02*
X142932795Y-137786904D01*
X142932795Y-137786904D02*
X143028033Y-137786904D01*
X143028033Y-137786904D02*
X143170890Y-137739285D01*
X143170890Y-137739285D02*
X143742319Y-137167857D01*
X143742319Y-137167857D02*
X143742319Y-137786904D01*
X143742319Y-97686905D02*
X142742319Y-97686905D01*
X142742319Y-97686905D02*
X142742319Y-97925000D01*
X142742319Y-97925000D02*
X142789938Y-98067857D01*
X142789938Y-98067857D02*
X142885176Y-98163095D01*
X142885176Y-98163095D02*
X142980414Y-98210714D01*
X142980414Y-98210714D02*
X143170890Y-98258333D01*
X143170890Y-98258333D02*
X143313747Y-98258333D01*
X143313747Y-98258333D02*
X143504223Y-98210714D01*
X143504223Y-98210714D02*
X143599461Y-98163095D01*
X143599461Y-98163095D02*
X143694700Y-98067857D01*
X143694700Y-98067857D02*
X143742319Y-97925000D01*
X143742319Y-97925000D02*
X143742319Y-97686905D01*
X143075652Y-99115476D02*
X143742319Y-99115476D01*
X142694700Y-98877381D02*
X143408985Y-98639286D01*
X143408985Y-98639286D02*
X143408985Y-99258333D01*
D11*
%TO.C,R10*%
X115946250Y-55335436D02*
X115946250Y-55789564D01*
X117416250Y-55335436D02*
X117416250Y-55789564D01*
%TO.C,R9*%
X119629186Y-58678750D02*
X120083314Y-58678750D01*
X119629186Y-57208750D02*
X120083314Y-57208750D01*
%TO.C,R8*%
X128814564Y-57208750D02*
X128360436Y-57208750D01*
X128814564Y-58678750D02*
X128360436Y-58678750D01*
%TO.C,J2*%
X129318750Y-51906250D02*
X129318750Y-49906250D01*
X119918750Y-48006250D02*
X119918750Y-46106250D01*
X119918750Y-51906250D02*
X119918750Y-49906250D01*
X129318750Y-48006250D02*
X129318750Y-46106250D01*
X119918750Y-46106250D02*
X129318750Y-46106250D01*
%TO.C,F1*%
X118077064Y-62028750D02*
X116872936Y-62028750D01*
X118077064Y-60208750D02*
X116872936Y-60208750D01*
%TO.C,D8*%
X140287500Y-119835000D02*
X140287500Y-115825000D01*
X142287500Y-119835000D02*
X140287500Y-119835000D01*
X142287500Y-119835000D02*
X142287500Y-115825000D01*
%TO.C,D11*%
X121237500Y-138885000D02*
X121237500Y-134875000D01*
X123237500Y-138885000D02*
X121237500Y-138885000D01*
X123237500Y-138885000D02*
X123237500Y-134875000D01*
%TO.C,C3*%
X130707498Y-81021250D02*
X131230002Y-81021250D01*
X130707498Y-82491250D02*
X131230002Y-82491250D01*
%TO.C,D9*%
X83137500Y-138885000D02*
X83137500Y-134875000D01*
X85137500Y-138885000D02*
X83137500Y-138885000D01*
X85137500Y-138885000D02*
X85137500Y-134875000D01*
%TO.C,C1*%
X130436252Y-62647500D02*
X129913748Y-62647500D01*
X130436252Y-61177500D02*
X129913748Y-61177500D01*
D10*
%TO.C,U1*%
X131381250Y-67850000D02*
X130706250Y-67850000D01*
X131381250Y-67850000D02*
X131381250Y-68525000D01*
X121606250Y-67850000D02*
X121606250Y-66575000D01*
X121031250Y-67850000D02*
X121606250Y-67850000D01*
X121031250Y-67850000D02*
X121031250Y-68525000D01*
X131381250Y-78200000D02*
X131381250Y-77525000D01*
X131381250Y-78200000D02*
X130706250Y-78200000D01*
X121031250Y-78200000D02*
X121031250Y-77525000D01*
X121031250Y-78200000D02*
X121706250Y-78200000D01*
D11*
%TO.C,R2*%
X126941250Y-60891686D02*
X126941250Y-61345814D01*
X125471250Y-60891686D02*
X125471250Y-61345814D01*
%TO.C,D5*%
X83137500Y-119835000D02*
X83137500Y-115825000D01*
X85137500Y-119835000D02*
X83137500Y-119835000D01*
X85137500Y-119835000D02*
X85137500Y-115825000D01*
%TO.C,C7*%
X139438748Y-67527500D02*
X139961252Y-67527500D01*
X139438748Y-68997500D02*
X139961252Y-68997500D01*
%TO.C,R4*%
X140552500Y-60552064D02*
X140552500Y-60097936D01*
X142022500Y-60552064D02*
X142022500Y-60097936D01*
%TO.C,D3*%
X121237500Y-100785000D02*
X121237500Y-96775000D01*
X123237500Y-100785000D02*
X121237500Y-100785000D01*
X123237500Y-100785000D02*
X123237500Y-96775000D01*
%TO.C,C4*%
X118801248Y-63558750D02*
X119323752Y-63558750D01*
X118801248Y-65028750D02*
X119323752Y-65028750D01*
%TO.C,R3*%
X123766250Y-60891686D02*
X123766250Y-61345814D01*
X122296250Y-60891686D02*
X122296250Y-61345814D01*
%TO.C,C6*%
X139961252Y-80110000D02*
X139438748Y-80110000D01*
X139961252Y-78640000D02*
X139438748Y-78640000D01*
%TO.C,D1*%
X83137500Y-100785000D02*
X83137500Y-96775000D01*
X85137500Y-100785000D02*
X83137500Y-100785000D01*
X85137500Y-100785000D02*
X85137500Y-96775000D01*
%TO.C,C2*%
X115946250Y-78048752D02*
X115946250Y-77526248D01*
X117416250Y-78048752D02*
X117416250Y-77526248D01*
%TO.C,D2*%
X102187500Y-100785000D02*
X102187500Y-96775000D01*
X104187500Y-100785000D02*
X102187500Y-100785000D01*
X104187500Y-100785000D02*
X104187500Y-96775000D01*
%TO.C,D15*%
X121237500Y-157935000D02*
X121237500Y-153925000D01*
X123237500Y-157935000D02*
X121237500Y-157935000D01*
X123237500Y-157935000D02*
X123237500Y-153925000D01*
%TO.C,D14*%
X102187500Y-157935000D02*
X102187500Y-153925000D01*
X104187500Y-157935000D02*
X102187500Y-157935000D01*
X104187500Y-157935000D02*
X104187500Y-153925000D01*
%TO.C,D13*%
X83137500Y-157935000D02*
X83137500Y-153925000D01*
X85137500Y-157935000D02*
X83137500Y-157935000D01*
X85137500Y-157935000D02*
X85137500Y-153925000D01*
%TO.C,D16*%
X140287500Y-157935000D02*
X140287500Y-153925000D01*
X142287500Y-157935000D02*
X140287500Y-157935000D01*
X142287500Y-157935000D02*
X142287500Y-153925000D01*
%TO.C,C5*%
X117416250Y-69588748D02*
X117416250Y-70111252D01*
X115946250Y-69588748D02*
X115946250Y-70111252D01*
%TO.C,D6*%
X102187500Y-119835000D02*
X102187500Y-115825000D01*
X104187500Y-119835000D02*
X102187500Y-119835000D01*
X104187500Y-119835000D02*
X104187500Y-115825000D01*
%TO.C,D7*%
X121237500Y-119835000D02*
X121237500Y-115825000D01*
X123237500Y-119835000D02*
X121237500Y-119835000D01*
X123237500Y-119835000D02*
X123237500Y-115825000D01*
%TO.C,Y1*%
X137450000Y-76518750D02*
X137450000Y-71118750D01*
X141950000Y-76518750D02*
X137450000Y-76518750D01*
%TO.C,R1*%
X120877064Y-82491250D02*
X120422936Y-82491250D01*
X120877064Y-81021250D02*
X120422936Y-81021250D01*
D10*
%TO.C,SW1*%
X132337500Y-58162500D02*
X137537500Y-58162500D01*
X137537500Y-58162500D02*
X137537500Y-52962500D01*
X132337500Y-52962500D02*
X132337500Y-58162500D01*
X137537500Y-52962500D02*
X132337500Y-52962500D01*
X135937500Y-55562500D02*
G75*
G03*
X135937500Y-55562500I-1000000J0D01*
G01*
D11*
%TO.C,D10*%
X102187500Y-138885000D02*
X102187500Y-134875000D01*
X104187500Y-138885000D02*
X102187500Y-138885000D01*
X104187500Y-138885000D02*
X104187500Y-134875000D01*
%TO.C,D12*%
X140287500Y-138885000D02*
X140287500Y-134875000D01*
X142287500Y-138885000D02*
X140287500Y-138885000D01*
X142287500Y-138885000D02*
X142287500Y-134875000D01*
%TO.C,D4*%
X140287500Y-100785000D02*
X140287500Y-96775000D01*
X142287500Y-100785000D02*
X140287500Y-100785000D01*
X142287500Y-100785000D02*
X142287500Y-96775000D01*
%TD*%
%LPC*%
D12*
%TO.C,R10*%
X116681250Y-54562500D03*
X116681250Y-56562500D03*
%TD*%
D13*
%TO.C,R9*%
X118856250Y-57943750D03*
X120856250Y-57943750D03*
%TD*%
D14*
%TO.C,R8*%
X129587500Y-57943750D03*
X127587500Y-57943750D03*
%TD*%
D15*
%TO.C,J2*%
X127508750Y-52606250D03*
X121728750Y-52606250D03*
D16*
X121368750Y-54051250D03*
X122168750Y-54051250D03*
D17*
X123368750Y-54051250D03*
X124368750Y-54051250D03*
X124868750Y-54051250D03*
X125868750Y-54051250D03*
D16*
X127068750Y-54051250D03*
X127868750Y-54051250D03*
X127868750Y-54051250D03*
X127068750Y-54051250D03*
D17*
X126368750Y-54051250D03*
X125368750Y-54051250D03*
X123868750Y-54051250D03*
X122868750Y-54051250D03*
D16*
X122168750Y-54051250D03*
X121368750Y-54051250D03*
D18*
X120298750Y-48956250D03*
D19*
X120298750Y-53136250D03*
X128938750Y-53136250D03*
D18*
X128938750Y-48956250D03*
%TD*%
D20*
%TO.C,F1*%
X118962500Y-61118750D03*
X115987500Y-61118750D03*
%TD*%
D21*
%TO.C,MX7*%
X109220000Y-117475000D03*
D22*
X114300000Y-117475000D03*
D21*
X119380000Y-117475000D03*
D23*
X111145001Y-114205000D03*
D24*
X111800000Y-113475000D03*
D25*
X116820000Y-112685000D03*
D24*
X116840000Y-112395000D03*
%TD*%
D26*
%TO.C,SW3*%
X73700000Y-78687500D03*
D27*
X78700000Y-78687500D03*
X76200000Y-78687500D03*
D28*
X70600000Y-71187500D03*
X81800000Y-71187500D03*
D27*
X78700000Y-64187500D03*
X73700000Y-64187500D03*
%TD*%
D21*
%TO.C,MX11*%
X109220000Y-136525000D03*
D22*
X114300000Y-136525000D03*
D21*
X119380000Y-136525000D03*
D23*
X111145001Y-133255000D03*
D24*
X111800000Y-132525000D03*
D25*
X116820000Y-131735000D03*
D24*
X116840000Y-131445000D03*
%TD*%
D21*
%TO.C,MX3*%
X109220000Y-98425000D03*
D22*
X114300000Y-98425000D03*
D21*
X119380000Y-98425000D03*
D23*
X111145001Y-95155000D03*
D24*
X111800000Y-94425000D03*
D25*
X116820000Y-93635000D03*
D24*
X116840000Y-93345000D03*
%TD*%
D21*
%TO.C,MX12*%
X128270000Y-136525000D03*
D22*
X133350000Y-136525000D03*
D21*
X138430000Y-136525000D03*
D23*
X130195001Y-133255000D03*
D24*
X130850000Y-132525000D03*
D25*
X135870000Y-131735000D03*
D24*
X135890000Y-131445000D03*
%TD*%
D21*
%TO.C,MX13*%
X71120000Y-155575000D03*
D22*
X76200000Y-155575000D03*
D21*
X81280000Y-155575000D03*
D23*
X73045001Y-152305000D03*
D24*
X73700000Y-151575000D03*
D25*
X78720000Y-150785000D03*
D24*
X78740000Y-150495000D03*
%TD*%
D21*
%TO.C,MX1*%
X71120000Y-98425000D03*
D22*
X76200000Y-98425000D03*
D21*
X81280000Y-98425000D03*
D23*
X73045001Y-95155000D03*
D24*
X73700000Y-94425000D03*
D25*
X78720000Y-93635000D03*
D24*
X78740000Y-93345000D03*
%TD*%
D29*
%TO.C,Brd1*%
X88418750Y-59150000D03*
X88418750Y-83250000D03*
X110518750Y-59150000D03*
X110618750Y-83250000D03*
D30*
X95598750Y-59250000D03*
X98138750Y-59250000D03*
X100678750Y-59250000D03*
X103218750Y-59250000D03*
%TD*%
D21*
%TO.C,MX4*%
X128270000Y-98425000D03*
D22*
X133350000Y-98425000D03*
D21*
X138430000Y-98425000D03*
D23*
X130195001Y-95155000D03*
D24*
X130850000Y-94425000D03*
D25*
X135870000Y-93635000D03*
D24*
X135890000Y-93345000D03*
%TD*%
D21*
%TO.C,MX2*%
X90170000Y-98425000D03*
D22*
X95250000Y-98425000D03*
D21*
X100330000Y-98425000D03*
D23*
X92095001Y-95155000D03*
D24*
X92750000Y-94425000D03*
D25*
X97770000Y-93635000D03*
D24*
X97790000Y-93345000D03*
%TD*%
D21*
%TO.C,MX10*%
X90170000Y-136525000D03*
D22*
X95250000Y-136525000D03*
D21*
X100330000Y-136525000D03*
D23*
X92095001Y-133255000D03*
D24*
X92750000Y-132525000D03*
D25*
X97770000Y-131735000D03*
D24*
X97790000Y-131445000D03*
%TD*%
D21*
%TO.C,MX14*%
X90170000Y-155575000D03*
D22*
X95250000Y-155575000D03*
D21*
X100330000Y-155575000D03*
D23*
X92095001Y-152305000D03*
D24*
X92750000Y-151575000D03*
D25*
X97770000Y-150785000D03*
D24*
X97790000Y-150495000D03*
%TD*%
D21*
%TO.C,MX5*%
X71120000Y-117475000D03*
D22*
X76200000Y-117475000D03*
D21*
X81280000Y-117475000D03*
D23*
X73045001Y-114205000D03*
D24*
X73700000Y-113475000D03*
D25*
X78720000Y-112685000D03*
D24*
X78740000Y-112395000D03*
%TD*%
D21*
%TO.C,MX16*%
X128270000Y-155575000D03*
D22*
X133350000Y-155575000D03*
D21*
X138430000Y-155575000D03*
D23*
X130195001Y-152305000D03*
D24*
X130850000Y-151575000D03*
D25*
X135870000Y-150785000D03*
D24*
X135890000Y-150495000D03*
%TD*%
D21*
%TO.C,MX6*%
X90170000Y-117475000D03*
D22*
X95250000Y-117475000D03*
D21*
X100330000Y-117475000D03*
D23*
X92095001Y-114205000D03*
D24*
X92750000Y-113475000D03*
D25*
X97770000Y-112685000D03*
D24*
X97790000Y-112395000D03*
%TD*%
D21*
%TO.C,MX9*%
X71120000Y-136525000D03*
D22*
X76200000Y-136525000D03*
D21*
X81280000Y-136525000D03*
D23*
X73045001Y-133255000D03*
D24*
X73700000Y-132525000D03*
D25*
X78720000Y-131735000D03*
D24*
X78740000Y-131445000D03*
%TD*%
D21*
%TO.C,MX15*%
X109220000Y-155575000D03*
D22*
X114300000Y-155575000D03*
D21*
X119380000Y-155575000D03*
D23*
X111145001Y-152305000D03*
D24*
X111800000Y-151575000D03*
D25*
X116820000Y-150785000D03*
D24*
X116840000Y-150495000D03*
%TD*%
D21*
%TO.C,MX8*%
X128270000Y-117475000D03*
D22*
X133350000Y-117475000D03*
D21*
X138430000Y-117475000D03*
D23*
X130195001Y-114205000D03*
D24*
X130850000Y-113475000D03*
D25*
X135870000Y-112685000D03*
D24*
X135890000Y-112395000D03*
%TD*%
D31*
%TO.C,D8*%
X141287500Y-119125000D03*
X141287500Y-115825000D03*
%TD*%
%TO.C,D11*%
X122237500Y-138175000D03*
X122237500Y-134875000D03*
%TD*%
D32*
%TO.C,C3*%
X129931250Y-81756250D03*
X132006250Y-81756250D03*
%TD*%
D31*
%TO.C,D9*%
X84137500Y-138175000D03*
X84137500Y-134875000D03*
%TD*%
D33*
%TO.C,C1*%
X131212500Y-61912500D03*
X129137500Y-61912500D03*
%TD*%
D34*
%TO.C,U1*%
X122206250Y-67325000D03*
X123006250Y-67325000D03*
X123806250Y-67325000D03*
X124606250Y-67325000D03*
X125406250Y-67325000D03*
X126206250Y-67325000D03*
X127006250Y-67325000D03*
X127806250Y-67325000D03*
X128606250Y-67325000D03*
X129406250Y-67325000D03*
X130206250Y-67325000D03*
D35*
X131906250Y-69025000D03*
X131906250Y-69825000D03*
X131906250Y-70625000D03*
X131906250Y-71425000D03*
X131906250Y-72225000D03*
X131906250Y-73025000D03*
X131906250Y-73825000D03*
X131906250Y-74625000D03*
X131906250Y-75425000D03*
X131906250Y-76225000D03*
X131906250Y-77025000D03*
D34*
X130206250Y-78725000D03*
X129406250Y-78725000D03*
X128606250Y-78725000D03*
X127806250Y-78725000D03*
X127006250Y-78725000D03*
X126206250Y-78725000D03*
X125406250Y-78725000D03*
X124606250Y-78725000D03*
X123806250Y-78725000D03*
X123006250Y-78725000D03*
X122206250Y-78725000D03*
D35*
X120506250Y-77025000D03*
X120506250Y-76225000D03*
X120506250Y-75425000D03*
X120506250Y-74625000D03*
X120506250Y-73825000D03*
X120506250Y-73025000D03*
X120506250Y-72225000D03*
X120506250Y-71425000D03*
X120506250Y-70625000D03*
X120506250Y-69825000D03*
X120506250Y-69025000D03*
%TD*%
D12*
%TO.C,R2*%
X126206250Y-60118750D03*
X126206250Y-62118750D03*
%TD*%
D31*
%TO.C,D5*%
X84137500Y-119125000D03*
X84137500Y-115825000D03*
%TD*%
D32*
%TO.C,C7*%
X138662500Y-68262500D03*
X140737500Y-68262500D03*
%TD*%
D36*
%TO.C,R4*%
X141287500Y-61325000D03*
X141287500Y-59325000D03*
%TD*%
D31*
%TO.C,D3*%
X122237500Y-100075000D03*
X122237500Y-96775000D03*
%TD*%
D32*
%TO.C,C4*%
X118025000Y-64293750D03*
X120100000Y-64293750D03*
%TD*%
D12*
%TO.C,R3*%
X123031250Y-60118750D03*
X123031250Y-62118750D03*
%TD*%
D33*
%TO.C,C6*%
X140737500Y-79375000D03*
X138662500Y-79375000D03*
%TD*%
D31*
%TO.C,D1*%
X84137500Y-100075000D03*
X84137500Y-96775000D03*
%TD*%
D37*
%TO.C,C2*%
X116681250Y-78825000D03*
X116681250Y-76750000D03*
%TD*%
D31*
%TO.C,D2*%
X103187500Y-100075000D03*
X103187500Y-96775000D03*
%TD*%
%TO.C,D15*%
X122237500Y-157225000D03*
X122237500Y-153925000D03*
%TD*%
%TO.C,D14*%
X103187500Y-157225000D03*
X103187500Y-153925000D03*
%TD*%
%TO.C,D13*%
X84137500Y-157225000D03*
X84137500Y-153925000D03*
%TD*%
%TO.C,D16*%
X141287500Y-157225000D03*
X141287500Y-153925000D03*
%TD*%
D38*
%TO.C,C5*%
X116681250Y-68812500D03*
X116681250Y-70887500D03*
%TD*%
D31*
%TO.C,D6*%
X103187500Y-119125000D03*
X103187500Y-115825000D03*
%TD*%
%TO.C,D7*%
X122237500Y-119125000D03*
X122237500Y-115825000D03*
%TD*%
D39*
%TO.C,Y1*%
X138550000Y-75268750D03*
X138550000Y-72368750D03*
X140850000Y-72368750D03*
X140850000Y-75268750D03*
%TD*%
D14*
%TO.C,R1*%
X121650000Y-81756250D03*
X119650000Y-81756250D03*
%TD*%
D40*
%TO.C,SW1*%
X133087500Y-52462500D03*
X136787500Y-58662500D03*
X136787500Y-52462500D03*
X133087500Y-58662500D03*
%TD*%
D31*
%TO.C,D10*%
X103187500Y-138175000D03*
X103187500Y-134875000D03*
%TD*%
%TO.C,D12*%
X141287500Y-138175000D03*
X141287500Y-134875000D03*
%TD*%
%TO.C,D4*%
X141287500Y-100075000D03*
X141287500Y-96775000D03*
%TD*%
%LPD*%
M02*
