0
SECTION
2
HEADER
9
$INSUNITS
70
4
0
ENDSEC
0
SECTION
2
TABLES
0
TABLE
2
LTYPE
0
LTYPE
72
65
70
64
2
CONTINUOUS
3
______
73
0
40
0
0
ENDTAB
0
TABLE
2
LAYER
0
ENDTAB
0
ENDSEC
0
SECTION
2
ENTITIES
0
LINE
8
0
10
45.6408836
20
-133.3593922
11
65.5592924
21
-78.6340138
0
LINE
8
0
10
66.8110187
20
-77.4190953
11
88.7002229
21
-70.184102
0
LINE
8
0
10
89.0578846
20
-70.101369
11
109.6599448
21
-67.2944238
0
LINE
8
0
10
110.6139823
20
-67.3967302
11
131.2981538
21
-74.9251529
0
LINE
8
0
10
132.0947502
20
-75.4600251
11
146.0431257
21
-90.8205891
0
LINE
8
0
10
146.3839536
20
-91.1194981
11
161.0736553
21
-101.3076623
0
LINE
8
0
10
161.8132318
20
-103.6351245
11
159.3842297
21
-110.3087529
0
LINE
8
0
10
161.2636149
20
-112.9927931
11
171.9380927
21
-112.9927931
0
LINE
8
0
10
173.8174779
20
-110.3087529
11
171.3884758
21
-103.6351245
0
LINE
8
0
10
172.1280523
20
-101.3076623
11
186.817754
21
-91.1194981
0
LINE
8
0
10
187.1585819
20
-90.8205891
11
201.1069574
21
-75.4600251
0
LINE
8
0
10
201.9035538
20
-74.9251529
11
222.5877253
21
-67.3967302
0
LINE
8
0
10
223.5417628
20
-67.2944238
11
244.143823
21
-70.101369
0
LINE
8
0
10
244.5014847
20
-70.184102
11
266.3906889
21
-77.4190953
0
LINE
8
0
10
267.6424152
20
-78.6340138
11
287.560824
21
-133.3593922
0
LINE
8
0
10
286.565676
20
-135.8373455
11
221.2829674
21
-168.0158208
0
LINE
8
0
10
220.4144346
20
-168.8465115
11
202.3380735
21
-201.7399549
0
LINE
8
0
10
199.6773225
20
-202.5587455
11
171.0925927
21
-187.9940982
0
LINE
8
0
10
170.1846117
20
-187.7761112
11
163.0170959
21
-187.7761112
0
LINE
8
0
10
162.1091149
20
-187.9940982
11
133.5243851
21
-202.5587455
0
LINE
8
0
10
130.8636341
20
-201.7399549
11
112.787273
21
-168.8465115
0
LINE
8
0
10
111.9187402
20
-168.0158208
11
46.6360316
21
-135.8373455
0
ARC
8
0
10
67.4386777
20
-79.318054
40
2
50
108.2901654
51
160.0000019
0
ARC
8
0
10
89.3278818
20
-72.0830607
40
2
50
97.7585388
51
108.2901654
0
ARC
8
0
10
109.929942
20
-69.2761154
40
2
50
70.0000019
51
97.7585388
0
ARC
8
0
10
130.6141136
20
-76.8045382
40
2
50
42.2414627
51
70.0000019
0
ARC
8
0
10
147.5237623
20
-89.4760761
40
2
50
222.2414627
51
235.2564403
0
ARC
8
0
10
159.9338466
20
-102.9510843
40
2
50
340.0000019
51
55.2564403
0
ARC
8
0
10
161.2636149
20
-110.9927931
40
2
50
160.0000019
51
270
0
ARC
8
0
10
171.9380927
20
-110.9927931
40
2
50
270
51
19.9999981
0
ARC
8
0
10
173.267861
20
-102.9510843
40
2
50
124.7435597
51
199.9999981
0
ARC
8
0
10
185.6779453
20
-89.4760761
40
2
50
304.7435597
51
317.7585373
0
ARC
8
0
10
202.587594
20
-76.8045382
40
2
50
109.9999981
51
137.7585373
0
ARC
8
0
10
223.2717656
20
-69.2761154
40
2
50
82.2414612
51
109.9999981
0
ARC
8
0
10
243.8738258
20
-72.0830607
40
2
50
71.7098346
51
82.2414612
0
ARC
8
0
10
265.7630299
20
-79.318054
40
2
50
19.9999981
51
71.7098346
0
ARC
8
0
10
285.6814388
20
-134.0434324
40
2
50
296.2391345
51
19.9999981
0
ARC
8
0
10
222.1672046
20
-169.8097339
40
2
50
116.2391345
51
151.2093153
0
ARC
8
0
10
200.5853035
20
-200.7767325
40
2
50
242.9999994
51
331.2093153
0
ARC
8
0
10
170.1846117
20
-189.7761112
40
2
50
62.9999994
51
90
0
ARC
8
0
10
163.0170959
20
-189.7761112
40
2
50
90
51
117.0000006
0
ARC
8
0
10
132.6164041
20
-200.7767325
40
2
50
208.7906847
51
297.0000006
0
ARC
8
0
10
111.034503
20
-169.8097339
40
2
50
28.7906847
51
63.7608655
0
ARC
8
0
10
47.5202688
20
-134.0434324
40
2
50
160.0000019
51
243.7608655
0
ENDSEC
0
EOF