0
SECTION
2
HEADER
9
$INSUNITS
70
4
0
ENDSEC
0
SECTION
2
TABLES
0
TABLE
2
LTYPE
0
LTYPE
72
65
70
64
2
CONTINUOUS
3
______
73
0
40
0
0
ENDTAB
0
TABLE
2
LAYER
0
ENDTAB
0
ENDSEC
0
SECTION
2
ENTITIES
0
LINE
8
0
10
47.9114046
20
-133.6997468
11
65.2957181
21
-140.0271195
0
LINE
8
0
10
65.2957181
20
-140.0271195
11
71.6230908
21
-122.642806
0
LINE
8
0
10
71.6230908
20
-122.642806
11
54.2387773
21
-116.3154333
0
LINE
8
0
10
54.2387773
20
-116.3154333
11
47.9114046
21
-133.6997468
0
LINE
8
0
10
54.4097874
20
-115.845587
11
71.7941009
21
-122.1729597
0
LINE
8
0
10
71.7941009
20
-122.1729597
11
78.1214736
21
-104.7886462
0
LINE
8
0
10
78.1214736
20
-104.7886462
11
60.7371601
21
-98.4612735
0
LINE
8
0
10
60.7371601
20
-98.4612735
11
54.4097874
21
-115.845587
0
LINE
8
0
10
60.9081701
20
-97.9914272
11
78.2924836
21
-104.3187999
0
LINE
8
0
10
78.2924836
20
-104.3187999
11
84.6198563
21
-86.9344864
0
LINE
8
0
10
84.6198563
20
-86.9344864
11
67.2355428
21
-80.6071137
0
LINE
8
0
10
67.2355428
20
-80.6071137
11
60.9081701
21
-97.9914272
0
LINE
8
0
10
70.8958666
20
-126.1027402
11
88.2801801
21
-132.4301129
0
LINE
8
0
10
88.2801801
20
-132.4301129
11
94.6075528
21
-115.0457994
0
LINE
8
0
10
94.6075528
20
-115.0457994
11
77.2232393
21
-108.7184267
0
LINE
8
0
10
77.2232393
20
-108.7184267
11
70.8958666
21
-126.1027402
0
LINE
8
0
10
77.3942493
20
-108.2485804
11
94.7785628
21
-114.5759531
0
LINE
8
0
10
94.7785628
20
-114.5759531
11
101.1059355
21
-97.1916396
0
LINE
8
0
10
101.1059355
20
-97.1916396
11
83.721622
21
-90.8642669
0
LINE
8
0
10
83.721622
20
-90.8642669
11
77.3942493
21
-108.2485804
0
LINE
8
0
10
83.892632
20
-90.3944206
11
101.2769455
21
-96.7217933
0
LINE
8
0
10
101.2769455
20
-96.7217933
11
107.6043182
21
-79.3374798
0
LINE
8
0
10
107.6043182
20
-79.3374798
11
90.2200047
21
-73.0101071
0
LINE
8
0
10
90.2200047
20
-73.0101071
11
83.892632
21
-90.3944206
0
LINE
8
0
10
92.1702278
20
-123.2041967
11
109.5545413
21
-129.5315694
0
LINE
8
0
10
109.5545413
20
-129.5315694
11
115.881914
21
-112.1472559
0
LINE
8
0
10
115.881914
20
-112.1472559
11
98.4976005
21
-105.8198832
0
LINE
8
0
10
98.4976005
20
-105.8198832
11
92.1702278
21
-123.2041967
0
LINE
8
0
10
98.6686105
20
-105.3500369
11
116.052924
21
-111.6774096
0
LINE
8
0
10
116.052924
20
-111.6774096
11
122.3802967
21
-94.2930961
0
LINE
8
0
10
122.3802967
20
-94.2930961
11
104.9959832
21
-87.9657234
0
LINE
8
0
10
104.9959832
20
-87.9657234
11
98.6686105
21
-105.3500369
0
LINE
8
0
10
105.1669933
20
-87.4958771
11
122.5513068
21
-93.8232498
0
LINE
8
0
10
122.5513068
20
-93.8232498
11
128.8786795
21
-76.4389363
0
LINE
8
0
10
128.8786795
20
-76.4389363
11
111.494366
21
-70.1115636
0
LINE
8
0
10
111.494366
20
-70.1115636
11
105.1669933
21
-87.4958771
0
LINE
8
0
10
106.6041862
20
-139.0995057
11
123.9884997
21
-145.4268784
0
LINE
8
0
10
123.9884997
20
-145.4268784
11
130.3158724
21
-128.0425649
0
LINE
8
0
10
130.3158724
20
-128.0425649
11
112.9315589
21
-121.7151922
0
LINE
8
0
10
112.9315589
20
-121.7151922
11
106.6041862
21
-139.0995057
0
LINE
8
0
10
113.1025689
20
-121.2453459
11
130.4868824
21
-127.5727186
0
LINE
8
0
10
130.4868824
20
-127.5727186
11
136.8142551
21
-110.1884051
0
LINE
8
0
10
136.8142551
20
-110.1884051
11
119.4299416
21
-103.8610324
0
LINE
8
0
10
119.4299416
20
-103.8610324
11
113.1025689
21
-121.2453459
0
LINE
8
0
10
119.6009516
20
-103.3911861
11
136.9852651
21
-109.7185588
0
LINE
8
0
10
136.9852651
20
-109.7185588
11
143.3126378
21
-92.3342453
0
LINE
8
0
10
143.3126378
20
-92.3342453
11
125.9283243
21
-86.0068726
0
LINE
8
0
10
125.9283243
20
-86.0068726
11
119.6009516
21
-103.3911861
0
LINE
8
0
10
122.7482453
20
-150.2963515
11
140.1325588
21
-156.6237242
0
LINE
8
0
10
140.1325588
20
-156.6237242
11
146.4599315
21
-139.2394107
0
LINE
8
0
10
146.4599315
20
-139.2394107
11
129.075618
21
-132.912038
0
LINE
8
0
10
129.075618
20
-132.912038
11
122.7482453
21
-150.2963515
0
LINE
8
0
10
129.246628
20
-132.4421917
11
146.6309415
21
-138.7695644
0
LINE
8
0
10
146.6309415
20
-138.7695644
11
152.9583142
21
-121.3852509
0
LINE
8
0
10
152.9583142
20
-121.3852509
11
135.5740007
21
-115.0578782
0
LINE
8
0
10
135.5740007
20
-115.0578782
11
129.246628
21
-132.4421917
0
LINE
8
0
10
135.7450107
20
-114.5880319
11
153.1293242
21
-120.9154046
0
LINE
8
0
10
153.1293242
20
-120.9154046
11
159.4566969
21
-103.5310911
0
LINE
8
0
10
159.4566969
20
-103.5310911
11
142.0723834
21
-97.2037184
0
LINE
8
0
10
142.0723834
20
-97.2037184
11
135.7450107
21
-114.5880319
0
LINE
8
0
10
115.6537178
20
-168.0170388
11
129.82554
21
-179.9086096
0
LINE
8
0
10
129.82554
20
-179.9086096
11
141.7171108
21
-165.7367874
0
LINE
8
0
10
141.7171108
20
-165.7367874
11
127.5452886
21
-153.8452166
0
LINE
8
0
10
127.5452886
20
-153.8452166
11
115.6537178
21
-168.0170388
0
LINE
8
0
10
137.903787
20
-197.8020948
11
154.3874077
21
-189.4032705
0
LINE
8
0
10
154.3874077
20
-189.4032705
11
145.9885834
21
-172.9196498
0
LINE
8
0
10
145.9885834
20
-172.9196498
11
129.5049627
21
-181.3184741
0
LINE
8
0
10
129.5049627
20
-181.3184741
11
137.903787
21
-197.8020948
0
LINE
8
0
10
267.9059895
20
-140.0271195
11
285.290303
21
-133.6997468
0
LINE
8
0
10
285.290303
20
-133.6997468
11
278.9629303
21
-116.3154333
0
LINE
8
0
10
278.9629303
20
-116.3154333
11
261.5786168
21
-122.642806
0
LINE
8
0
10
261.5786168
20
-122.642806
11
267.9059895
21
-140.0271195
0
LINE
8
0
10
261.4076067
20
-122.1729597
11
278.7919202
21
-115.845587
0
LINE
8
0
10
278.7919202
20
-115.845587
11
272.4645475
21
-98.4612735
0
LINE
8
0
10
272.4645475
20
-98.4612735
11
255.080234
21
-104.7886462
0
LINE
8
0
10
255.080234
20
-104.7886462
11
261.4076067
21
-122.1729597
0
LINE
8
0
10
254.909224
20
-104.3187999
11
272.2935375
21
-97.9914272
0
LINE
8
0
10
272.2935375
20
-97.9914272
11
265.9661648
21
-80.6071137
0
LINE
8
0
10
265.9661648
20
-80.6071137
11
248.5818513
21
-86.9344864
0
LINE
8
0
10
248.5818513
20
-86.9344864
11
254.909224
21
-104.3187999
0
LINE
8
0
10
244.9215275
20
-132.4301129
11
262.305841
21
-126.1027402
0
LINE
8
0
10
262.305841
20
-126.1027402
11
255.9784683
21
-108.7184267
0
LINE
8
0
10
255.9784683
20
-108.7184267
11
238.5941548
21
-115.0457994
0
LINE
8
0
10
238.5941548
20
-115.0457994
11
244.9215275
21
-132.4301129
0
LINE
8
0
10
238.4231448
20
-114.5759531
11
255.8074583
21
-108.2485804
0
LINE
8
0
10
255.8074583
20
-108.2485804
11
249.4800856
21
-90.8642669
0
LINE
8
0
10
249.4800856
20
-90.8642669
11
232.0957721
21
-97.1916396
0
LINE
8
0
10
232.0957721
20
-97.1916396
11
238.4231448
21
-114.5759531
0
LINE
8
0
10
231.9247621
20
-96.7217933
11
249.3090756
21
-90.3944206
0
LINE
8
0
10
249.3090756
20
-90.3944206
11
242.9817029
21
-73.0101071
0
LINE
8
0
10
242.9817029
20
-73.0101071
11
225.5973894
21
-79.3374798
0
LINE
8
0
10
225.5973894
20
-79.3374798
11
231.9247621
21
-96.7217933
0
LINE
8
0
10
223.6471663
20
-129.5315694
11
241.0314798
21
-123.2041967
0
LINE
8
0
10
241.0314798
20
-123.2041967
11
234.7041071
21
-105.8198832
0
LINE
8
0
10
234.7041071
20
-105.8198832
11
217.3197936
21
-112.1472559
0
LINE
8
0
10
217.3197936
20
-112.1472559
11
223.6471663
21
-129.5315694
0
LINE
8
0
10
217.1487836
20
-111.6774096
11
234.5330971
21
-105.3500369
0
LINE
8
0
10
234.5330971
20
-105.3500369
11
228.2057244
21
-87.9657234
0
LINE
8
0
10
228.2057244
20
-87.9657234
11
210.8214109
21
-94.2930961
0
LINE
8
0
10
210.8214109
20
-94.2930961
11
217.1487836
21
-111.6774096
0
LINE
8
0
10
210.6504008
20
-93.8232498
11
228.0347143
21
-87.4958771
0
LINE
8
0
10
228.0347143
20
-87.4958771
11
221.7073416
21
-70.1115636
0
LINE
8
0
10
221.7073416
20
-70.1115636
11
204.3230281
21
-76.4389363
0
LINE
8
0
10
204.3230281
20
-76.4389363
11
210.6504008
21
-93.8232498
0
LINE
8
0
10
209.2132079
20
-145.4268784
11
226.5975214
21
-139.0995057
0
LINE
8
0
10
226.5975214
20
-139.0995057
11
220.2701487
21
-121.7151922
0
LINE
8
0
10
220.2701487
20
-121.7151922
11
202.8858352
21
-128.0425649
0
LINE
8
0
10
202.8858352
20
-128.0425649
11
209.2132079
21
-145.4268784
0
LINE
8
0
10
202.7148252
20
-127.5727186
11
220.0991387
21
-121.2453459
0
LINE
8
0
10
220.0991387
20
-121.2453459
11
213.771766
21
-103.8610324
0
LINE
8
0
10
213.771766
20
-103.8610324
11
196.3874525
21
-110.1884051
0
LINE
8
0
10
196.3874525
20
-110.1884051
11
202.7148252
21
-127.5727186
0
LINE
8
0
10
196.2164425
20
-109.7185588
11
213.600756
21
-103.3911861
0
LINE
8
0
10
213.600756
20
-103.3911861
11
207.2733833
21
-86.0068726
0
LINE
8
0
10
207.2733833
20
-86.0068726
11
189.8890698
21
-92.3342453
0
LINE
8
0
10
189.8890698
20
-92.3342453
11
196.2164425
21
-109.7185588
0
LINE
8
0
10
193.0691488
20
-156.6237242
11
210.4534623
21
-150.2963515
0
LINE
8
0
10
210.4534623
20
-150.2963515
11
204.1260896
21
-132.912038
0
LINE
8
0
10
204.1260896
20
-132.912038
11
186.7417761
21
-139.2394107
0
LINE
8
0
10
186.7417761
20
-139.2394107
11
193.0691488
21
-156.6237242
0
LINE
8
0
10
186.5707661
20
-138.7695644
11
203.9550796
21
-132.4421917
0
LINE
8
0
10
203.9550796
20
-132.4421917
11
197.6277069
21
-115.0578782
0
LINE
8
0
10
197.6277069
20
-115.0578782
11
180.2433934
21
-121.3852509
0
LINE
8
0
10
180.2433934
20
-121.3852509
11
186.5707661
21
-138.7695644
0
LINE
8
0
10
180.0723834
20
-120.9154046
11
197.4566969
21
-114.5880319
0
LINE
8
0
10
197.4566969
20
-114.5880319
11
191.1293242
21
-97.2037184
0
LINE
8
0
10
191.1293242
20
-97.2037184
11
173.7450107
21
-103.5310911
0
LINE
8
0
10
173.7450107
20
-103.5310911
11
180.0723834
21
-120.9154046
0
LINE
8
0
10
203.3761676
20
-179.9086096
11
217.5479898
21
-168.0170388
0
LINE
8
0
10
217.5479898
20
-168.0170388
11
205.656419
21
-153.8452166
0
LINE
8
0
10
205.656419
20
-153.8452166
11
191.4845968
21
-165.7367874
0
LINE
8
0
10
191.4845968
20
-165.7367874
11
203.3761676
21
-179.9086096
0
LINE
8
0
10
178.8142999
20
-189.4032705
11
195.2979206
21
-197.8020948
0
LINE
8
0
10
195.2979206
20
-197.8020948
11
203.6967449
21
-181.3184741
0
LINE
8
0
10
203.6967449
20
-181.3184741
11
187.2131242
21
-172.9196498
0
LINE
8
0
10
187.2131242
20
-172.9196498
11
178.8142999
21
-189.4032705
0
ENDSEC
0
EOF