0
SECTION
2
HEADER
9
$INSUNITS
70
4
0
ENDSEC
0
SECTION
2
TABLES
0
TABLE
2
LTYPE
0
LTYPE
72
65
70
64
2
CONTINUOUS
3
______
73
0
40
0
0
ENDTAB
0
TABLE
2
LAYER
0
ENDTAB
0
ENDSEC
0
SECTION
2
ENTITIES
0
LINE
8
0
10
45.0275509
20
-135.0445099
11
66.6404812
21
-142.9109732
0
LINE
8
0
10
66.6404812
20
-142.9109732
11
71.7707834
21
-128.8155839
0
LINE
8
0
10
45.0275509
20
-135.0445099
11
65.8907797
21
-77.72326
0
LINE
8
0
10
83.7449395
20
-84.2216427
11
65.8907797
21
-77.72326
0
LINE
8
0
10
71.7707834
20
-128.8155839
11
89.6249432
21
-135.3139666
0
LINE
8
0
10
89.6249432
20
-135.3139666
11
93.0451446
21
-125.9170404
0
LINE
8
0
10
106.7294015
20
-76.6246361
11
88.8752416
21
-70.1262534
0
LINE
8
0
10
88.8752416
20
-70.1262534
11
83.7449395
21
-84.2216427
0
LINE
8
0
10
93.0451446
20
-125.9170404
11
107.140534
21
-131.0473425
0
LINE
8
0
10
128.3423317
20
-84.4910995
11
131.7625332
21
-75.0941732
0
LINE
8
0
10
131.7625332
20
-75.0941732
11
110.1496029
21
-67.2277099
0
LINE
8
0
10
110.1496029
20
-67.2277099
11
106.7294015
21
-76.6246361
0
LINE
8
0
10
103.7203325
20
-140.4442688
11
121.5744923
21
-146.9426515
0
LINE
8
0
10
107.140534
20
-131.0473425
11
103.7203325
21
-140.4442688
0
LINE
8
0
10
144.4863908
20
-95.6879453
11
146.1964915
21
-90.9894822
0
LINE
8
0
10
146.1964915
20
-90.9894822
11
128.3423317
21
-84.4910995
0
LINE
8
0
10
119.8643916
20
-151.6411146
11
124.9150695
21
-153.479411
0
LINE
8
0
10
134.9720702
20
-157.1398599
11
141.4773219
21
-159.5075779
0
LINE
8
0
10
141.4773219
20
-159.5075779
11
162.3405506
21
-102.186328
0
LINE
8
0
10
121.5744923
20
-146.9426515
11
119.8643916
21
-151.6411146
0
LINE
8
0
10
162.3405506
20
-102.186328
11
144.4863908
21
-95.6879453
0
LINE
8
0
10
112.4838457
20
-168.2943667
11
126.6994835
21
-180.2227031
0
LINE
8
0
10
136.8306607
20
-175.0606105
11
144.8869829
21
-165.4594595
0
LINE
8
0
10
144.8869829
20
-165.4594595
11
134.9720702
21
-157.1398599
0
LINE
8
0
10
124.9150695
20
-153.479411
11
112.4838457
21
-168.2943667
0
LINE
8
0
10
136.9205009
20
-200.8283381
11
157.413651
21
-190.3865566
0
LINE
8
0
10
157.413651
20
-190.3865566
11
146.9718695
21
-169.8934065
0
LINE
8
0
10
146.9718695
20
-169.8934065
11
136.8306607
21
-175.0606105
0
LINE
8
0
10
126.6994835
20
-180.2227031
11
126.4787194
21
-180.335188
0
LINE
8
0
10
126.4787194
20
-180.335188
11
136.9205009
21
-200.8283381
0
LINE
8
0
10
266.5612264
20
-142.9109732
11
288.1741567
21
-135.0445099
0
LINE
8
0
10
267.3109279
20
-77.72326
11
288.1741567
21
-135.0445099
0
LINE
8
0
10
261.4309242
20
-128.8155839
11
266.5612264
21
-142.9109732
0
LINE
8
0
10
267.3109279
20
-77.72326
11
249.4567681
21
-84.2216427
0
LINE
8
0
10
243.5767644
20
-135.3139666
11
261.4309242
21
-128.8155839
0
LINE
8
0
10
240.156563
20
-125.9170404
11
243.5767644
21
-135.3139666
0
LINE
8
0
10
249.4567681
20
-84.2216427
11
244.326466
21
-70.1262534
0
LINE
8
0
10
244.326466
20
-70.1262534
11
226.4723061
21
-76.6246361
0
LINE
8
0
10
226.0611736
20
-131.0473425
11
240.156563
21
-125.9170404
0
LINE
8
0
10
226.4723061
20
-76.6246361
11
223.0521047
21
-67.2277099
0
LINE
8
0
10
223.0521047
20
-67.2277099
11
201.4391744
21
-75.0941732
0
LINE
8
0
10
201.4391744
20
-75.0941732
11
204.8593759
21
-84.4910995
0
LINE
8
0
10
211.6272153
20
-146.9426515
11
229.4813751
21
-140.4442688
0
LINE
8
0
10
229.4813751
20
-140.4442688
11
226.0611736
21
-131.0473425
0
LINE
8
0
10
204.8593759
20
-84.4910995
11
187.0052161
21
-90.9894822
0
LINE
8
0
10
187.0052161
20
-90.9894822
11
188.7153168
21
-95.6879453
0
LINE
8
0
10
191.7243857
20
-159.5075779
11
198.2296374
21
-157.1398599
0
LINE
8
0
10
208.2866381
20
-153.479411
11
213.337316
21
-151.6411146
0
LINE
8
0
10
213.337316
20
-151.6411146
11
211.6272153
21
-146.9426515
0
LINE
8
0
10
170.861157
20
-102.186328
11
191.7243857
21
-159.5075779
0
LINE
8
0
10
188.7153168
20
-95.6879453
11
170.861157
21
-102.186328
0
LINE
8
0
10
206.5022241
20
-180.2227031
11
220.7178619
21
-168.2943667
0
LINE
8
0
10
220.7178619
20
-168.2943667
11
208.2866381
21
-153.479411
0
LINE
8
0
10
198.2296374
20
-157.1398599
11
188.3147247
21
-165.4594595
0
LINE
8
0
10
188.3147247
20
-165.4594595
11
196.3710469
21
-175.0606105
0
LINE
8
0
10
175.7880566
20
-190.3865566
11
196.2812067
21
-200.8283381
0
LINE
8
0
10
196.2812067
20
-200.8283381
11
206.7229882
21
-180.335188
0
LINE
8
0
10
206.7229882
20
-180.335188
11
206.5022241
21
-180.2227031
0
LINE
8
0
10
196.3710469
20
-175.0606105
11
186.2298381
21
-169.8934065
0
LINE
8
0
10
186.2298381
20
-169.8934065
11
175.7880566
21
-190.3865566
0
ENDSEC
0
EOF