0
SECTION
2
HEADER
9
$INSUNITS
70
4
0
ENDSEC
0
SECTION
2
TABLES
0
TABLE
2
LTYPE
0
LTYPE
72
65
70
64
2
CONTINUOUS
3
______
73
0
40
0
0
ENDTAB
0
TABLE
2
LAYER
0
ENDTAB
0
ENDSEC
0
SECTION
2
ENTITIES
0
LINE
8
0
10
43.0835978
20
-134.5378684
11
64.3639475
21
-76.0705883
0
LINE
8
0
10
65.6156738
20
-74.8556698
11
87.504878
21
-67.6206765
0
LINE
8
0
10
87.8625397
20
-67.5379435
11
108.4645999
21
-64.7309983
0
LINE
8
0
10
109.4186373
20
-64.8333047
11
133.8615793
21
-73.729808
0
LINE
8
0
10
134.6581757
20
-74.2646802
11
148.6065512
21
-89.6252442
0
LINE
8
0
10
148.9473791
20
-89.9241532
11
163.6370809
21
-100.1123174
0
LINE
8
0
10
164.3766573
20
-102.4397796
11
161.2636149
21
-110.9927932
0
LINE
8
0
10
163.1430002
20
-113.6768334
11
170.0587074
21
-113.6768334
0
LINE
8
0
10
171.9380927
20
-110.9927932
11
168.8250503
21
-102.4397796
0
LINE
8
0
10
169.5646267
20
-100.1123174
11
184.2543285
21
-89.9241532
0
LINE
8
0
10
184.5951564
20
-89.6252442
11
198.5435319
21
-74.2646802
0
LINE
8
0
10
199.3401283
20
-73.729808
11
223.7830703
21
-64.8333047
0
LINE
8
0
10
224.7371077
20
-64.7309983
11
245.3391679
21
-67.5379435
0
LINE
8
0
10
245.6968296
20
-67.6206765
11
267.5860338
21
-74.8556698
0
LINE
8
0
10
268.8377601
20
-76.0705883
11
290.1181098
21
-134.5378684
0
LINE
8
0
10
289.1051466
20
-137.0244937
11
224.1241064
21
-168.2579761
0
LINE
8
0
10
223.2273063
20
-169.1166077
11
204.0945226
21
-204.8549683
0
LINE
8
0
10
201.4233195
20
-205.6930279
11
167.0837685
21
-188.1961528
0
LINE
8
0
10
167.0837685
20
-188.1961528
11
166.1179391
21
-188.1961528
0
LINE
8
0
10
166.1179391
20
-188.1961528
11
131.7783881
21
-205.6930279
0
LINE
8
0
10
129.107185
20
-204.8549683
11
109.9744013
21
-169.1166077
0
LINE
8
0
10
109.0776012
20
-168.2579761
11
44.096561
21
-137.0244937
0
ARC
8
0
10
66.2433328
20
-76.7546285
40
2
50
108.2901654
51
160.0000019
0
ARC
8
0
10
88.1325369
20
-69.5196352
40
2
50
97.7585388
51
108.2901654
0
ARC
8
0
10
108.7345971
20
-66.7126899
40
2
50
70.0000019
51
97.7585388
0
ARC
8
0
10
133.1775391
20
-75.6091933
40
2
50
42.2414627
51
70.0000019
0
ARC
8
0
10
150.0871878
20
-88.2807312
40
2
50
222.2414627
51
235.2564403
0
ARC
8
0
10
162.4972721
20
-101.7557394
40
2
50
340.0000019
51
55.2564403
0
ARC
8
0
10
163.1430002
20
-111.6768334
40
2
50
160.0000019
51
270
0
ARC
8
0
10
170.0587074
20
-111.6768334
40
2
50
270
51
19.9999981
0
ARC
8
0
10
170.7044355
20
-101.7557394
40
2
50
124.7435597
51
199.9999981
0
ARC
8
0
10
183.1145198
20
-88.2807312
40
2
50
304.7435597
51
317.7585373
0
ARC
8
0
10
200.0241685
20
-75.6091933
40
2
50
109.9999981
51
137.7585373
0
ARC
8
0
10
224.4671105
20
-66.7126899
40
2
50
82.2414612
51
109.9999981
0
ARC
8
0
10
245.0691707
20
-69.5196352
40
2
50
71.7098346
51
82.2414612
0
ARC
8
0
10
266.9583748
20
-76.7546285
40
2
50
19.9999981
51
71.7098346
0
ARC
8
0
10
288.2387246
20
-135.2219086
40
2
50
295.6715124
51
19.9999981
0
ARC
8
0
10
224.9905284
20
-170.0605612
40
2
50
115.6715124
51
151.8373143
0
ARC
8
0
10
202.3313005
20
-203.9110149
40
2
50
242.9999994
51
331.8373143
0
ARC
8
0
10
130.8704071
20
-203.9110149
40
2
50
208.1626857
51
297.0000006
0
ARC
8
0
10
108.2111792
20
-170.0605612
40
2
50
28.1626857
51
64.3284876
0
ARC
8
0
10
44.962983
20
-135.2219086
40
2
50
160.0000019
51
244.3284876
0
ENDSEC
0
EOF